<?xml version="1.0" standalone="no"?>
<!DOCTYPE svg PUBLIC "-//W3C//DTD SVG 20010904//EN"
 "http://www.w3.org/TR/2001/REC-SVG-20010904/DTD/svg10.dtd">
<svg version="1.0" xmlns="http://www.w3.org/2000/svg"
 width="2000.000000pt" height="2000.000000pt" viewBox="0 0 2000.000000 2000.000000"
 preserveAspectRatio="xMidYMid meet">

<g transform="translate(0.000000,2000.000000) scale(0.100000,-0.100000)"
fill="#000000" stroke="none">
<path d="M9620 19894 c-645 -55 -1126 -188 -2216 -612 -430 -168 -854 -293
-1174 -348 -544 -92 -954 -36 -1670 231 -167 62 -647 253 -833 331 -32 14 -80
33 -107 44 l-49 19 -1353 -1372 c-1781 -1806 -1813 -1837 -1816 -1847 -2 -4
73 -90 165 -191 93 -101 340 -371 549 -599 447 -488 499 -547 614 -701 333
-444 513 -910 582 -1504 19 -164 16 -643 -5 -835 -64 -573 -207 -1152 -452
-1825 -79 -216 -138 -365 -294 -743 -201 -486 -342 -894 -460 -1337 -347
-1298 -357 -2502 -30 -3462 174 -511 422 -934 792 -1349 892 -1002 2286 -1641
4097 -1879 795 -104 1345 -209 1692 -321 350 -113 674 -295 1064 -599 92 -71
401 -325 686 -562 l518 -433 62 0 63 0 501 418 c569 474 786 647 982 780 578
394 1049 528 2552 728 746 99 1489 292 2105 547 941 389 1698 969 2215 1697
821 1154 954 2807 380 4730 -108 361 -218 661 -425 1160 -257 619 -402 1042
-525 1525 -153 602 -209 1069 -189 1558 33 759 290 1391 798 1957 108 120
1046 1146 1094 1197 l40 42 -359 363 c-395 399 -2442 2475 -2674 2711 l-146
149 -149 -62 c-895 -370 -1301 -509 -1665 -571 -161 -27 -478 -37 -646 -20
-363 37 -831 162 -1324 353 -911 354 -1347 492 -1800 572 -286 51 -374 58
-770 61 -206 1 -395 1 -420 -1z m870 -208 c523 -61 995 -197 1895 -546 879
-340 1464 -469 1959 -431 453 34 801 136 1667 486 173 70 319 129 325 131 8 4
2151 -2159 2808 -2833 l157 -162 -447 -488 c-619 -675 -601 -655 -701 -780
-403 -504 -620 -1039 -694 -1713 -17 -149 -17 -628 -1 -795 76 -776 292 -1546
723 -2583 199 -478 333 -851 443 -1232 386 -1338 415 -2553 85 -3535 -306
-907 -978 -1680 -1938 -2229 -745 -427 -1725 -733 -2776 -866 -372 -47 -925
-135 -1190 -190 -588 -121 -992 -285 -1400 -568 -212 -147 -387 -287 -976
-778 l-447 -373 -439 367 c-758 634 -960 788 -1262 960 -469 269 -1061 419
-2276 577 -1972 255 -3445 1001 -4269 2160 -257 361 -428 722 -545 1150 -113
413 -161 793 -161 1284 0 390 27 706 95 1108 119 698 315 1343 668 2189 402
964 608 1684 704 2464 25 206 25 787 0 975 -77 567 -251 1024 -557 1457 -139
197 -166 228 -798 917 -260 284 -471 521 -470 527 3 10 1094 1119 2413 2454
193 195 391 397 441 448 l89 93 275 -111 c1064 -432 1446 -533 1965 -517 460
14 961 139 1670 417 1004 393 1541 540 2110 580 189 13 694 4 855 -14z"/>
<path d="M9645 18739 c-432 -35 -874 -163 -1825 -532 -600 -232 -1103 -358
-1630 -408 -160 -15 -558 -15 -720 0 -475 45 -928 156 -1556 383 l-60 22 -415
-420 c-832 -840 -1449 -1469 -1449 -1475 0 -3 39 -48 87 -100 531 -577 726
-840 947 -1279 233 -465 365 -914 433 -1470 25 -208 25 -805 -1 -1045 -92
-871 -317 -1674 -783 -2800 -273 -658 -422 -1122 -532 -1655 -93 -451 -132
-821 -132 -1245 -1 -560 73 -993 236 -1400 128 -319 319 -598 605 -886 724
-728 1827 -1186 3320 -1379 313 -41 737 -111 989 -165 1076 -228 1674 -522
2658 -1307 105 -84 167 -127 175 -122 7 4 67 51 133 104 712 571 1163 846
1745 1063 218 82 356 124 630 192 356 89 825 175 1255 230 939 120 1646 316
2290 635 441 218 751 436 1061 745 252 251 410 465 539 730 429 878 417 2187
-32 3600 -89 283 -166 487 -338 900 -465 1118 -700 1986 -776 2870 -16 185
-16 676 0 840 58 597 193 1072 445 1570 211 416 398 676 815 1133 l223 243
-724 732 c-398 403 -819 829 -935 947 l-210 214 -34 -11 c-19 -6 -126 -44
-239 -83 -482 -168 -877 -261 -1300 -306 -186 -20 -588 -22 -770 -5 -510 49
-1048 181 -1573 388 -979 384 -1410 511 -1887 553 -135 12 -508 11 -665 -1z
m655 -1579 c100 -11 160 -39 204 -93 28 -36 31 -45 31 -111 0 -64 -3 -77 -29
-110 -34 -45 -76 -73 -134 -88 -24 -6 -42 -13 -40 -17 2 -4 47 -68 101 -143
113 -157 159 -203 222 -220 72 -19 58 -38 -27 -37 -152 1 -145 -3 -249 144
-50 72 -112 156 -136 188 -42 55 -46 57 -90 57 l-45 0 3 -156 c4 -150 5 -157
28 -175 13 -10 38 -19 57 -19 24 0 34 -5 34 -15 0 -13 -27 -15 -180 -15 -153
0 -180 2 -180 15 0 11 11 15 35 15 25 0 44 8 61 25 l26 26 -4 327 c-2 180 -7
334 -12 343 -9 21 -49 39 -86 39 -33 0 -41 16 -12 23 33 9 338 7 422 -3z
m-751 -362 c185 -371 215 -418 266 -418 16 0 25 -6 25 -15 0 -11 -11 -15 -43
-15 -24 0 -99 -3 -167 -7 -98 -5 -122 -4 -118 7 2 7 19 18 38 24 50 16 50 47
1 152 l-41 86 -72 -6 c-40 -3 -114 -9 -164 -12 l-90 -6 -32 -94 c-18 -51 -32
-98 -32 -103 0 -20 33 -41 66 -41 51 0 45 -26 -8 -33 -114 -16 -218 -19 -218
-8 0 7 13 17 30 22 16 6 38 25 49 42 10 18 55 133 99 257 138 389 195 530 213
530 12 0 69 -103 198 -362z m1453 328 c10 -15 223 -551 238 -598 6 -21 15 -38
18 -38 4 1 43 60 86 133 66 110 269 432 283 446 4 5 206 -17 236 -25 32 -10
17 -24 -24 -24 -55 0 -76 -14 -89 -58 -14 -50 -80 -558 -80 -616 0 -49 16 -67
73 -80 27 -6 38 -26 15 -26 -7 0 -83 9 -168 20 -85 11 -158 20 -162 20 -5 0
-8 6 -8 14 0 11 9 13 33 9 26 -4 40 0 60 18 26 23 28 33 62 308 20 156 34 286
32 288 -6 5 -151 -219 -280 -432 -59 -99 -113 -180 -120 -180 -7 0 -31 52 -54
115 -93 251 -228 582 -230 564 -6 -49 -33 -495 -33 -542 0 -64 23 -92 75 -92
25 0 35 -4 35 -16 0 -13 -12 -15 -92 -9 -145 9 -198 16 -198 24 0 5 18 11 40
14 76 10 73 -1 95 347 22 343 21 364 -11 389 -15 12 -40 21 -55 21 -20 0 -29
5 -29 16 0 14 14 15 123 9 71 -5 125 -12 129 -19z m-2367 -102 c72 -25 174
-129 203 -207 79 -211 0 -428 -191 -522 -77 -37 -126 -49 -391 -90 -113 -18
-172 -23 -178 -17 -7 7 3 14 31 22 24 6 48 21 57 36 16 23 14 42 -35 342 -29
174 -59 327 -67 339 -17 27 -53 38 -94 29 -22 -4 -30 -2 -30 9 0 8 2 15 4 15
3 0 87 13 188 29 248 40 240 40 353 36 61 -2 119 -10 150 -21z m3551 -29 c115
-19 258 -45 317 -57 108 -21 109 -21 104 -47 -3 -14 -9 -54 -13 -89 -5 -50
-10 -62 -23 -60 -11 2 -18 18 -21 50 -7 55 -30 84 -79 99 -29 8 -291 58 -291
55 0 -1 -11 -66 -25 -146 -14 -80 -25 -150 -25 -155 0 -12 182 -46 242 -45 28
0 42 7 62 31 14 17 26 37 26 45 0 8 7 14 15 14 19 0 20 8 -11 -147 -19 -92
-31 -133 -40 -133 -10 0 -14 14 -14 44 0 65 -33 89 -152 110 -51 9 -103 19
-115 21 -26 6 -24 12 -53 -161 -25 -148 -25 -171 -2 -183 9 -5 73 -18 141 -30
152 -26 178 -21 255 50 31 28 60 49 66 47 8 -2 -76 -156 -99 -181 -4 -4 -61 4
-127 17 -65 13 -195 36 -289 51 -93 14 -180 28 -192 31 -37 7 -26 24 15 24 55
0 79 21 91 83 26 128 92 575 89 607 -3 36 -24 53 -80 65 -34 7 -37 25 -5 25
13 0 117 -16 233 -35z m-4286 -39 c0 -7 -14 -16 -32 -20 -46 -9 -68 -33 -68
-74 0 -19 29 -188 65 -377 36 -188 65 -345 65 -349 0 -18 -34 4 -163 107 -242
194 -537 406 -537 387 0 -22 120 -511 130 -530 13 -24 43 -33 86 -25 25 4 34
2 34 -8 0 -9 -37 -22 -117 -41 -65 -14 -128 -29 -140 -32 -17 -5 -23 -2 -23
10 0 9 8 16 19 16 10 0 31 10 46 22 36 28 35 34 -50 381 l-69 279 -40 20 c-24
12 -61 21 -95 22 -31 0 -55 5 -54 11 1 6 54 23 117 39 l115 28 83 -58 c116
-81 367 -267 467 -347 47 -36 86 -65 88 -64 6 6 -95 494 -106 515 -12 22 -29
27 -87 23 -38 -3 -55 16 -22 24 38 9 262 53 276 54 6 1 12 -5 12 -13z m5075
-121 c250 -60 302 -85 358 -167 38 -58 38 -137 0 -196 -37 -56 -107 -92 -180
-92 -29 0 -53 -1 -53 -3 0 -15 145 -348 163 -374 19 -27 45 -48 106 -83 7 -4
11 -12 8 -18 -4 -5 -49 3 -116 21 l-109 30 -22 56 c-60 159 -157 374 -170 381
-8 4 -29 10 -46 13 -29 5 -32 3 -36 -21 -3 -15 -17 -82 -33 -149 -25 -114 -26
-125 -12 -147 9 -13 32 -29 52 -36 34 -11 48 -30 23 -30 -7 0 -86 17 -175 37
-108 24 -163 41 -163 50 0 9 9 11 30 7 40 -9 77 2 90 26 9 17 127 525 144 621
8 46 -21 86 -69 95 -21 4 -35 12 -35 21 0 17 -4 18 245 -42z m-6080 -175 c24
-73 26 -100 7 -100 -4 0 -16 16 -27 36 -25 47 -66 68 -119 60 -42 -7 -278 -74
-285 -82 -2 -2 16 -69 40 -149 30 -98 49 -145 58 -145 8 0 65 16 127 35 127
40 144 54 144 122 0 82 24 48 59 -84 19 -71 33 -132 33 -138 -1 -22 -20 -14
-32 15 -28 68 -67 74 -220 30 -58 -16 -106 -30 -107 -30 -1 0 -1 -6 2 -12 2
-7 24 -79 50 -160 33 -109 50 -148 64 -153 20 -6 240 58 282 82 31 18 66 76
84 137 7 25 19 42 30 44 12 3 16 -1 12 -15 -3 -10 -9 -59 -12 -109 l-7 -90
-106 -29 c-59 -15 -192 -54 -297 -87 -218 -67 -217 -66 -221 -53 -2 6 16 19
39 30 36 17 42 25 45 55 4 54 -180 630 -210 653 -21 18 -58 18 -104 0 -8 -3
-14 1 -14 10 0 8 8 17 18 20 9 2 98 30 197 61 161 49 419 124 437 125 3 1 18
-35 33 -79z m6885 -41 c196 -60 200 -62 200 -76 0 -16 1 -16 -39 -2 -40 14
-77 5 -96 -25 -21 -32 -195 -591 -195 -627 0 -33 28 -66 65 -75 24 -6 31 -15
20 -26 -3 -3 -80 18 -172 46 -169 53 -219 80 -126 70 33 -4 54 -1 66 8 13 9
47 106 103 289 109 357 112 373 89 399 -10 11 -33 25 -51 32 -38 14 -49 44
-11 32 12 -4 78 -24 147 -45z m-7688 -233 c52 -116 53 -157 3 -97 -60 70 -165
108 -256 91 -119 -23 -203 -84 -248 -180 -63 -137 -5 -353 127 -472 65 -59
117 -81 202 -86 92 -5 167 20 230 76 l41 37 -48 132 c-61 167 -69 177 -135
169 -92 -12 -48 15 112 71 91 32 157 50 162 45 6 -6 -5 -18 -26 -30 -49 -29
-47 -54 11 -224 l47 -138 -25 -26 c-38 -40 -147 -109 -222 -138 -94 -37 -209
-53 -285 -39 -134 25 -250 111 -308 228 -27 56 -29 68 -29 175 0 108 2 119 32
182 52 111 143 193 265 240 30 11 98 24 158 29 57 5 107 14 111 20 4 6 4 20 1
31 -4 15 -1 19 13 17 12 -3 34 -40 67 -113z m8398 5 c0 -3 7 -94 14 -201 8
-107 18 -276 21 -375 8 -229 17 -279 56 -307 29 -21 41 -55 17 -45 -183 72
-298 121 -298 128 0 4 21 9 48 11 45 3 47 5 56 39 5 19 5 70 1 113 l-7 78 -41
17 c-23 10 -93 35 -155 57 l-114 39 -64 -70 c-35 -38 -67 -79 -70 -89 -6 -20
15 -44 62 -72 10 -7 15 -15 11 -20 -10 -11 -249 68 -255 84 -2 8 10 12 37 12
47 0 62 12 197 152 270 281 458 466 470 461 8 -3 14 -8 14 -12z m-4650 -406
c78 -24 119 -47 163 -90 78 -75 113 -193 105 -343 -11 -183 -85 -293 -237
-354 -52 -21 -73 -23 -333 -26 -271 -3 -278 -3 -278 16 0 16 9 21 50 27 l50 7
0 368 0 367 -50 7 c-42 6 -50 10 -50 27 0 21 2 21 263 17 213 -4 272 -8 317
-23z m1000 -85 c0 -99 0 -100 -24 -100 -21 0 -24 6 -31 57 -11 89 3 83 -186
83 l-169 0 0 -160 0 -160 114 0 114 0 8 48 c7 38 13 48 32 50 22 3 22 2 22
-127 0 -123 -1 -131 -19 -131 -20 0 -24 8 -36 68 l-7 32 -114 0 -114 0 0 -165
0 -165 190 0 190 0 6 28 c27 120 30 127 52 130 21 3 22 -1 22 -55 0 -32 -3
-82 -6 -110 l-7 -53 -338 0 c-325 0 -339 1 -339 19 0 15 10 20 50 25 l50 7 0
364 0 364 -50 7 c-40 5 -50 10 -50 25 0 18 14 19 320 19 l320 0 0 -100z
m-1907 -1111 c49 -7 95 -18 103 -26 10 -10 14 -38 14 -94 0 -77 -1 -79 -24
-79 -22 0 -25 5 -31 54 -7 52 -9 56 -45 70 -74 29 -165 40 -231 28 -86 -16
-129 -41 -166 -96 -44 -64 -54 -102 -60 -230 -13 -262 82 -396 281 -396 68 0
166 22 199 45 15 11 25 33 32 73 9 48 14 58 33 60 22 3 23 2 20 -95 l-3 -98
-85 -18 c-121 -25 -302 -19 -385 13 -81 31 -163 113 -196 195 -21 53 -24 76
-23 190 0 155 18 214 90 294 96 107 240 140 477 110z m557 -14 c0 -17 -7 -20
-62 -30 l-38 -6 0 -154 0 -155 185 0 185 0 0 155 0 154 -37 6 c-21 4 -45 7
-53 8 -8 1 -16 10 -18 20 -3 16 10 17 162 17 142 0 166 -2 166 -15 0 -17 -7
-20 -62 -30 l-38 -6 0 -354 0 -354 38 -6 c55 -10 62 -13 62 -30 0 -13 -24 -15
-166 -15 -152 0 -165 1 -162 17 2 13 18 20 56 26 l52 9 0 169 0 169 -185 0
-185 0 0 -170 0 -169 38 -6 c55 -10 62 -13 62 -30 0 -13 -24 -15 -166 -15
-152 0 -165 1 -162 17 2 13 18 20 56 26 l52 9 0 353 0 354 -37 6 c-21 4 -45 7
-53 8 -8 1 -16 10 -18 20 -3 16 10 17 162 17 142 0 166 -2 166 -15z m885 -5
c0 -10 -17 -18 -52 -24 l-53 -10 0 -352 0 -352 52 -9 c38 -6 54 -13 56 -26 3
-16 -10 -17 -162 -17 -142 0 -166 2 -166 15 0 17 7 20 63 30 l37 6 0 354 0
353 -50 7 c-40 6 -50 11 -50 26 0 19 8 19 163 17 136 -3 162 -5 162 -18z m425
0 c0 -16 -9 -20 -60 -26 l-60 -7 0 -353 0 -354 103 1 c56 1 131 4 167 8 l65 6
19 83 c16 71 21 82 40 82 20 0 21 -3 16 -112 l-5 -113 -318 -3 c-299 -2 -318
-1 -315 15 2 13 18 20 56 26 l52 9 -2 351 -3 352 -52 8 c-49 8 -65 22 -46 40
3 4 82 7 175 7 160 0 168 -1 168 -20z m1010 -80 c0 -99 0 -100 -24 -100 -22 0
-24 5 -32 68 l-9 67 -157 3 -158 3 0 -156 0 -155 104 0 105 0 7 45 c5 39 10
45 30 45 l24 0 0 -126 c0 -124 0 -125 -22 -122 -19 2 -25 12 -32 51 l-8 47
-104 0 -104 0 0 -160 0 -160 174 0 c158 0 175 2 180 18 2 9 10 43 17 75 11 51
15 57 37 57 24 0 24 -2 18 -46 -3 -26 -6 -73 -6 -105 l0 -59 -326 0 c-304 0
-325 1 -322 17 2 13 18 20 56 26 l52 9 0 352 0 353 -52 9 c-38 6 -54 14 -56
27 -3 16 16 17 302 17 l306 0 0 -100z m-3200 -1170 l0 -220 205 0 205 0 0 220
0 220 233 -2 232 -3 3 -217 2 -218 205 0 205 0 0 220 0 220 233 -2 232 -3 3
-217 2 -218 200 0 200 0 2 218 3 217 233 3 232 2 0 -220 0 -220 205 0 205 0 2
218 3 217 233 3 232 2 0 -551 0 -551 -44 -41 c-25 -23 -124 -129 -220 -235
l-176 -193 0 -100 0 -99 180 0 180 0 2 213 3 212 220 0 220 0 3 -212 2 -213
190 0 190 0 2 213 3 212 220 0 220 0 3 -519 c1 -294 6 -522 11 -525 5 -4 -87
-112 -205 -241 -117 -129 -209 -236 -204 -238 6 -2 10 -61 10 -142 l0 -138
170 -141 c180 -150 218 -192 247 -274 17 -49 18 -148 18 -2007 l0 -1955 -805
-8 c-1032 -10 -3802 -10 -4875 0 l-830 8 -3 1910 c-2 1315 1 1930 8 1975 6 36
24 93 41 128 28 58 46 75 212 214 l182 150 5 147 5 146 -205 225 -205 225 5
530 5 530 220 0 220 0 3 -212 2 -213 195 0 195 0 2 213 3 212 220 0 220 0 3
-212 2 -213 190 0 190 0 0 109 0 109 -195 214 c-108 117 -205 216 -215 220
-20 7 -20 21 -20 556 0 302 3 552 7 555 3 4 109 7 235 7 l228 0 0 -220z
m-3192 -132 c41 -101 77 -219 104 -340 18 -86 22 -135 23 -298 0 -183 -2 -202
-28 -303 -43 -166 -106 -301 -196 -422 -24 -33 -42 -71 -50 -110 -8 -33 -16
-66 -18 -73 -3 -7 31 23 76 67 121 118 231 199 465 339 15 8 -1 -184 -24 -299
-41 -202 -122 -402 -227 -563 -26 -39 -97 -120 -158 -181 -118 -117 -205 -177
-351 -240 -43 -19 -83 -40 -87 -47 -4 -7 -43 -107 -86 -223 -43 -115 -89 -235
-101 -265 -23 -59 -18 -58 22 3 129 195 381 402 653 539 l120 60 3 -26 c10
-77 -83 -396 -158 -546 -164 -328 -429 -560 -751 -657 l-87 -26 -27 -101 c-78
-287 -93 -348 -86 -340 4 5 35 43 68 84 119 147 324 321 502 425 23 13 7 -242
-24 -391 -59 -286 -170 -507 -346 -689 -105 -108 -199 -176 -332 -241 l-95
-46 -70 -279 c-38 -153 -68 -279 -67 -279 1 0 31 34 65 76 75 90 202 203 325
289 87 61 213 135 230 135 11 0 -2 -124 -26 -248 -69 -361 -255 -671 -511
-852 -59 -43 -213 -127 -259 -142 -18 -6 -67 -229 -74 -336 -4 -57 -3 -163 1
-234 l7 -131 32 89 c81 225 209 421 407 622 86 87 103 100 109 84 15 -39 29
-202 29 -327 0 -412 -135 -734 -412 -981 -43 -38 -78 -76 -78 -86 0 -29 67
-251 106 -349 20 -52 59 -139 86 -194 84 -169 164 -294 144 -224 -75 260 -64
590 29 879 43 132 104 280 115 280 22 0 148 -238 195 -370 57 -159 77 -265 82
-435 8 -237 -25 -386 -127 -583 l-49 -92 59 -49 c33 -27 81 -64 107 -82 26
-18 73 -53 103 -78 76 -62 218 -152 325 -208 l90 -47 -46 51 c-153 171 -277
437 -334 717 -27 134 -43 296 -29 296 5 0 46 -23 92 -50 436 -262 692 -655
704 -1078 l3 -93 110 -35 c175 -55 671 -172 682 -160 2 2 -27 23 -64 47 -110
70 -315 283 -409 424 -83 125 -200 342 -190 353 4 3 65 -4 137 -16 232 -38
468 -131 661 -258 101 -68 252 -221 323 -327 54 -83 135 -250 135 -281 0 -10
19 -16 63 -21 155 -16 565 -67 687 -85 233 -35 650 -106 676 -115 8 -2 9 -18
1 -57 -5 -29 -11 -54 -12 -56 -1 -1 -89 14 -196 33 -333 61 -594 102 -1025
159 -27 4 -40 -5 -107 -69 -180 -174 -434 -295 -712 -340 -119 -20 -391 -19
-515 0 -52 8 -146 27 -208 41 l-113 27 33 35 c142 148 413 314 627 383 l84 27
-74 12 c-104 17 -321 64 -476 105 l-133 35 -77 -39 c-105 -52 -203 -86 -326
-113 -146 -31 -407 -31 -557 1 -151 32 -324 92 -461 161 -152 75 -191 99 -183
112 11 18 202 103 315 141 118 40 272 72 397 82 l82 7 -79 57 c-119 84 -204
148 -297 224 -81 66 -83 67 -142 67 -136 0 -362 60 -514 136 -156 78 -295 182
-429 321 -101 104 -145 160 -235 295 l-75 113 87 3 c218 7 516 -65 730 -177
l72 -37 -25 65 c-25 67 -73 215 -93 286 -8 30 -24 51 -67 85 -113 90 -248 271
-322 433 -90 193 -129 372 -138 617 -6 195 14 440 37 440 4 0 47 -37 95 -82
95 -89 212 -224 260 -300 17 -27 33 -48 36 -48 3 0 23 74 44 164 l38 164 -37
51 c-82 111 -163 308 -201 486 -23 109 -30 326 -16 455 14 114 65 327 105 431
36 96 88 209 95 209 11 0 118 -180 160 -271 36 -74 108 -281 127 -364 6 -25
13 -5 44 119 l38 148 -45 67 c-219 317 -275 768 -152 1209 29 103 124 348 138
357 10 6 80 -103 135 -210 61 -118 110 -247 141 -369 14 -55 26 -101 28 -102
1 -1 28 89 58 201 l56 204 -45 87 c-52 101 -92 214 -118 334 -28 129 -26 428
4 565 28 127 73 266 125 380 43 97 132 261 146 270 13 7 92 -161 135 -284 20
-58 48 -161 62 -230 14 -69 27 -127 28 -128 1 -1 18 43 38 98 l36 101 -44 71
c-124 201 -189 507 -164 772 6 66 20 165 31 219 20 99 93 333 109 349 4 5 33
-29 64 -76 101 -152 195 -375 229 -542 l14 -70 22 92 c27 108 25 157 -13 291
-89 318 -46 678 123 1027 61 127 167 305 181 305 4 0 22 -33 38 -72z m9223
-10 c120 -187 218 -419 260 -623 42 -200 35 -452 -18 -633 -37 -124 -38 -166
-12 -279 l22 -98 18 80 c26 120 64 227 124 350 61 125 152 268 165 260 14 -8
89 -245 111 -349 10 -50 24 -147 30 -216 26 -277 -42 -588 -173 -790 l-35 -56
37 -104 c41 -114 38 -114 60 10 15 88 54 225 91 318 38 95 99 222 108 222 9 0
95 -155 142 -255 52 -114 103 -266 131 -392 30 -134 32 -444 5 -573 -26 -119
-61 -220 -116 -326 l-47 -91 57 -209 c47 -172 58 -204 64 -179 37 156 67 247
121 367 41 90 120 231 153 274 l21 27 36 -77 c55 -120 121 -329 145 -461 29
-156 31 -395 6 -535 -34 -182 -107 -366 -200 -502 l-45 -66 37 -148 38 -149
12 45 c32 125 88 277 142 385 65 131 128 230 144 227 28 -6 138 -313 176 -492
31 -143 34 -469 5 -600 -38 -176 -104 -335 -191 -464 l-47 -70 37 -155 c21
-86 40 -160 42 -164 3 -5 21 15 41 45 57 86 155 199 252 291 50 48 95 87 99
87 25 0 44 -224 38 -439 -7 -251 -44 -414 -138 -618 -73 -159 -223 -358 -333
-443 -33 -26 -49 -46 -56 -75 -20 -74 -70 -230 -94 -290 l-24 -61 85 44 c151
78 313 129 498 156 135 19 277 28 293 18 15 -10 -103 -193 -201 -310 -277
-332 -645 -537 -1004 -559 l-103 -6 -55 -48 c-30 -26 -85 -69 -123 -95 -37
-26 -78 -57 -92 -70 -14 -12 -59 -47 -102 -77 l-76 -54 90 -7 c113 -9 244 -35
373 -76 116 -37 337 -139 332 -154 -5 -15 -149 -92 -276 -147 -227 -99 -425
-142 -656 -142 -229 -1 -418 42 -597 135 l-78 40 -152 -40 c-127 -34 -240 -59
-497 -109 -19 -3 -3 -11 63 -34 184 -62 415 -199 583 -347 35 -30 61 -58 58
-62 -7 -12 -213 -59 -330 -75 -119 -17 -352 -19 -462 -4 -103 14 -252 52 -333
85 -172 69 -355 187 -448 288 l-43 47 -82 -11 c-336 -44 -809 -119 -1062 -169
-55 -10 -103 -16 -107 -13 -4 4 -10 30 -14 58 l-6 51 63 12 c208 37 564 94
754 121 204 28 559 70 596 70 10 0 20 16 28 43 7 23 33 82 57 131 177 358 532
605 1005 700 123 25 189 32 189 20 0 -16 -121 -238 -173 -317 -116 -178 -271
-343 -417 -445 -54 -39 -67 -52 -51 -52 58 0 474 99 671 160 l97 30 6 123 c14
330 178 639 469 883 126 105 317 229 332 213 9 -10 -27 -254 -54 -367 -62
-255 -185 -501 -329 -656 l-36 -39 100 53 c117 62 271 162 335 217 25 22 72
58 105 80 33 22 80 58 104 79 l43 39 -35 60 c-47 78 -91 192 -119 302 -19 74
-23 115 -23 263 0 196 12 272 71 448 35 107 146 336 187 386 l23 29 52 -129
c139 -349 174 -681 103 -979 -11 -44 -18 -81 -16 -83 5 -5 44 57 98 155 88
160 174 375 221 557 l24 91 -31 25 c-223 174 -375 423 -437 715 -36 172 -37
498 -2 629 l8 29 63 -59 c192 -178 378 -458 454 -683 l25 -73 7 106 c12 173 2
325 -30 464 l-29 122 -110 55 c-135 66 -215 126 -324 239 -209 218 -344 538
-377 895 l-7 74 58 -33 c207 -115 400 -274 543 -445 20 -25 31 -32 27 -20 -3
11 -30 121 -61 245 -31 124 -60 242 -66 262 -9 34 -17 41 -84 72 -406 188
-665 581 -725 1101 -11 96 -14 235 -5 235 9 0 152 -97 220 -149 87 -66 239
-214 308 -301 33 -41 57 -66 54 -55 -5 17 -69 251 -106 391 -11 42 -11 42 -99
69 -435 135 -741 481 -871 986 -32 126 -49 239 -35 239 5 0 61 -26 124 -58
270 -137 497 -323 643 -527 27 -38 47 -63 45 -55 -3 8 -30 78 -61 155 -30 77
-74 195 -98 261 l-44 122 -87 37 c-348 147 -600 461 -713 885 -29 112 -55 273
-55 348 l0 54 58 -33 c146 -82 301 -198 426 -318 41 -40 66 -58 62 -46 -3 11
-11 43 -17 70 -7 29 -34 81 -65 125 -211 304 -267 680 -163 1088 31 122 105
322 119 322 4 0 32 -37 61 -82z m-4131 -7399 c503 -55 918 -132 1210 -224 107
-34 279 -115 304 -143 16 -19 17 -27 7 -68 -7 -25 -10 -49 -7 -52 9 -9 620
110 1241 242 441 94 547 109 790 109 164 0 218 -3 300 -20 167 -35 290 -90
358 -161 l27 -28 -235 -364 c-129 -200 -239 -368 -243 -372 -5 -5 -49 5 -98
21 -130 44 -276 57 -454 42 -174 -14 -368 -49 -526 -95 -483 -140 -1159 -275
-1559 -311 -38 -3 -85 -9 -104 -12 l-34 -6 6 236 7 236 -78 25 c-260 81 -829
177 -1197 201 -237 16 -932 -85 -1295 -188 l-115 -33 1 -39 c3 -119 5 -427 2
-429 -6 -5 -264 24 -443 49 -276 39 -858 162 -1135 240 -352 99 -528 129 -765
129 -179 0 -253 -12 -363 -55 -29 -12 -55 -19 -59 -16 -3 3 -113 172 -244 374
l-238 368 27 28 c132 138 470 210 832 178 181 -17 298 -37 717 -126 619 -132
1131 -231 1140 -221 3 3 0 26 -6 52 -15 59 -5 72 100 125 237 119 707 225
1324 299 421 50 434 51 805 9z m-340 -1489 c0 -16 45 -159 100 -317 l100 -287
-92 -121 c-113 -149 -118 -155 -95 -135 9 8 56 67 104 130 l89 115 339 5 c187
3 345 8 351 12 7 5 14 2 17 -7 4 -10 -79 -72 -281 -211 -158 -108 -288 -198
-289 -199 -7 -4 179 -541 199 -576 13 -24 18 -43 12 -48 -5 -6 -114 64 -281
180 -150 104 -277 189 -284 189 -6 0 -133 -86 -282 -191 -180 -126 -273 -187
-280 -180 -7 7 -4 19 8 37 10 15 59 152 110 305 l93 279 -289 195 c-170 116
-289 203 -289 212 0 12 5 13 23 8 34 -12 292 -16 491 -8 l180 8 102 300 c56
165 105 308 107 318 9 30 37 21 37 -13z"/>
<path d="M10148 17113 l-38 -4 0 -170 0 -169 29 0 c45 0 129 18 167 36 109 52
115 224 9 285 -33 19 -108 29 -167 22z"/>
<path d="M9263 16801 l-61 -162 106 6 c120 7 172 13 172 22 0 8 -130 259 -144
279 -11 14 -22 -9 -73 -145z"/>
<path d="M8258 16975 c-26 -9 -49 -19 -51 -23 -3 -4 19 -155 47 -337 l52 -330
89 0 c78 0 98 4 147 28 65 32 121 89 152 156 18 39 21 65 21 161 0 103 -3 121
-26 170 -35 74 -76 120 -141 155 -46 26 -65 30 -148 32 -64 2 -110 -2 -142
-12z"/>
<path d="M12967 16754 c-21 -75 -68 -296 -64 -300 10 -10 81 -24 123 -24 91 0
164 50 183 126 28 110 -45 197 -177 210 -53 6 -60 4 -65 -12z"/>
<path d="M14252 16107 l-122 -122 131 -48 c72 -27 133 -46 135 -44 4 4 -14
309 -19 330 -1 4 -57 -48 -125 -116z"/>
<path d="M9490 15589 l0 -361 143 4 c135 3 145 5 197 33 102 55 145 166 138
349 -5 114 -26 177 -81 234 -63 66 -175 102 -319 102 l-78 0 0 -361z"/>
<path d="M8255 12578 c21 -24 63 -69 92 -101 l55 -57 227 2 227 3 -107 98
-107 97 -212 0 -212 0 37 -42z"/>
<path d="M8705 12602 c11 -10 61 -55 111 -100 l91 -82 208 2 208 3 -84 97 -84
97 -235 1 c-227 0 -234 -1 -215 -18z"/>
<path d="M9207 12607 c4 -8 42 -53 83 -100 l75 -86 152 -1 152 0 -43 98 -44
97 -191 3 c-160 2 -191 0 -184 -11z"/>
<path d="M9620 12613 c0 -5 18 -50 41 -100 l42 -93 432 0 432 0 37 86 c21 48
40 93 43 100 4 11 -22 14 -141 14 l-146 0 0 -95 c0 -78 -3 -95 -15 -95 -12 0
-15 17 -15 95 l0 95 -195 0 -195 0 0 -95 c0 -78 -3 -95 -15 -95 -12 0 -15 17
-15 95 l0 95 -145 0 c-80 0 -145 -3 -145 -7z"/>
<path d="M10653 12543 c-19 -43 -39 -88 -44 -100 l-9 -23 149 0 149 0 73 83
c40 45 80 90 88 100 13 16 4 17 -178 17 l-192 0 -36 -77z"/>
<path d="M11033 12525 c-46 -52 -83 -97 -83 -100 0 -3 93 -5 206 -5 l206 0
106 97 c59 53 109 98 111 100 2 1 -101 3 -230 3 l-234 0 -82 -95z"/>
<path d="M11590 12587 c-19 -17 -69 -62 -110 -99 l-74 -68 231 0 231 0 92 100
92 100 -213 0 -214 -1 -35 -32z"/>
<path d="M8470 12343 c24 -27 65 -72 92 -101 l49 -52 251 2 250 3 -108 97
-109 98 -234 0 -234 0 43 -47z"/>
<path d="M9025 12314 c145 -136 116 -125 320 -122 l178 3 -84 97 -84 98 -205
-1 -205 0 80 -75z"/>
<path d="M9417 12366 c10 -13 47 -58 83 -100 l65 -75 102 0 c118 -1 112 -15
50 122 l-36 77 -141 0 -142 0 19 -24z"/>
<path d="M9723 12376 c3 -7 22 -52 43 -100 l37 -86 109 0 108 0 0 100 0 100
-151 0 c-123 0 -150 -3 -146 -14z"/>
<path d="M10050 12290 l0 -100 85 0 85 0 0 100 0 100 -85 0 -85 0 0 -100z"/>
<path d="M10250 12290 l0 -100 108 0 107 0 40 92 c22 50 42 95 43 100 2 4 -64
8 -147 8 l-151 0 0 -100z"/>
<path d="M10545 12299 c-22 -51 -41 -96 -43 -100 -2 -5 41 -9 96 -9 l100 0 68
78 c37 42 77 87 88 100 l19 22 -144 0 -145 0 -39 -91z"/>
<path d="M10827 12290 l-88 -100 183 0 183 0 85 76 c47 41 96 86 110 100 l25
24 -205 0 -205 0 -88 -100z"/>
<path d="M11266 12294 c-58 -53 -106 -98 -106 -100 0 -2 112 -4 249 -4 l249 0
92 100 92 100 -235 0 -235 0 -106 -96z"/>
<path d="M8620 12025 l0 -125 150 0 150 0 0 125 0 125 -150 0 -150 0 0 -125z"/>
<path d="M8960 12025 l0 -125 150 0 150 0 0 125 0 125 -150 0 -150 0 0 -125z"/>
<path d="M9300 12025 l0 -125 150 0 150 0 0 125 0 125 -150 0 -150 0 0 -125z"/>
<path d="M9636 12113 c-3 -21 -6 -77 -6 -125 l0 -88 155 0 155 0 0 125 0 125
-149 0 -148 0 -7 -37z"/>
<path d="M9976 12098 c-3 -29 -6 -86 -6 -125 l0 -73 155 0 155 0 0 125 0 125
-149 0 -148 0 -7 -52z"/>
<path d="M10316 12089 c-3 -34 -6 -91 -6 -125 l0 -64 155 0 155 0 0 125 0 125
-149 0 -148 0 -7 -61z"/>
<path d="M10656 12074 c-3 -42 -6 -99 -6 -126 l0 -48 160 0 161 0 -3 123 -3
122 -151 3 -151 3 -7 -77z"/>
<path d="M11000 12025 l0 -125 155 0 155 0 0 125 0 125 -155 0 -155 0 0 -125z"/>
<path d="M11340 12025 l0 -125 155 0 155 0 0 125 0 125 -155 0 -155 0 0 -125z"/>
<path d="M8580 11847 c-14 -12 -43 -37 -65 -54 l-40 -33 253 0 252 0 0 55 0
55 -187 0 c-180 -1 -189 -2 -213 -23z"/>
<path d="M9010 11815 l0 -55 170 0 170 0 0 55 0 55 -170 0 -170 0 0 -55z"/>
<path d="M9380 11815 l0 -55 165 0 165 0 0 55 0 55 -165 0 -165 0 0 -55z"/>
<path d="M9750 11815 l0 -55 165 0 165 0 0 55 0 55 -165 0 -165 0 0 -55z"/>
<path d="M10110 11815 l0 -55 165 0 165 0 0 24 c0 13 3 38 6 55 l7 31 -172 0
-171 0 0 -55z"/>
<path d="M10480 11838 c0 -18 -3 -43 -6 -55 l-6 -23 171 0 171 0 0 55 0 55
-165 0 -165 0 0 -32z"/>
<path d="M10840 11815 l0 -55 170 0 170 0 0 55 0 55 -170 0 -170 0 0 -55z"/>
<path d="M11210 11815 l0 -55 165 0 165 0 0 55 0 55 -165 0 -165 0 0 -55z"/>
<path d="M11580 11815 l0 -55 102 0 c114 0 113 -4 23 69 -39 32 -58 41 -87 41
l-38 0 0 -55z"/>
<path d="M8387 11687 c-46 -41 -47 -43 -47 -99 l0 -58 230 0 230 0 0 100 0
100 -182 0 -183 -1 -48 -42z"/>
<path d="M8830 11630 l0 -100 170 0 170 0 0 100 0 100 -170 0 -170 0 0 -100z"/>
<path d="M9200 11630 l0 -100 165 0 165 0 0 100 0 99 -165 0 -165 0 0 -99z"/>
<path d="M9570 11630 l0 -100 165 0 165 0 0 100 0 99 -165 0 -165 0 0 -99z"/>
<path d="M9930 11630 l0 -100 164 0 163 0 7 77 c3 42 6 86 6 99 l0 23 -170 0
-170 0 0 -99z"/>
<path d="M10300 11652 c0 -42 -3 -87 -6 -99 l-6 -23 171 0 171 0 0 100 0 99
-165 0 -165 0 0 -77z"/>
<path d="M10660 11630 l0 -100 170 0 170 0 0 100 0 99 -170 0 -170 0 0 -99z"/>
<path d="M11030 11630 l0 -100 165 0 165 0 0 100 0 99 -165 0 -165 0 0 -99z"/>
<path d="M11396 11668 c-3 -33 -6 -78 -6 -99 l0 -39 170 0 170 0 0 100 0 99
-164 0 -163 0 -7 -61z"/>
<path d="M11760 11630 l0 -100 135 0 c74 0 135 4 135 8 0 13 -58 70 -137 135
-52 42 -78 57 -102 57 l-31 0 0 -100z"/>
<path d="M8265 11579 l-40 -44 39 -3 c21 -2 40 -1 43 1 2 3 3 24 1 48 l-3 42
-40 -44z"/>
<path d="M8201 11473 c-12 -30 -31 -124 -31 -154 0 -18 11 -19 160 -19 l160 0
0 100 0 100 -139 0 -139 0 -11 -27z"/>
<path d="M8520 11400 l0 -100 230 0 230 0 0 100 0 100 -230 0 -230 0 0 -100z"/>
<path d="M9010 11400 l0 -100 170 0 170 0 0 100 0 100 -170 0 -170 0 0 -100z"/>
<path d="M9380 11400 l0 -100 165 0 165 0 0 100 0 100 -165 0 -165 0 0 -100z"/>
<path d="M9750 11400 l0 -100 165 0 165 0 0 100 0 100 -165 0 -165 0 0 -100z"/>
<path d="M10110 11400 l0 -100 164 0 163 0 6 93 c3 50 3 95 0 100 -2 4 -78 7
-169 7 l-164 0 0 -100z"/>
<path d="M10480 11453 c0 -27 -3 -72 -6 -100 l-7 -53 172 0 171 0 0 100 0 100
-165 0 -165 0 0 -47z"/>
<path d="M10840 11400 l0 -100 164 0 c140 0 165 2 170 16 3 9 6 54 6 100 l0
84 -170 0 -170 0 0 -100z"/>
<path d="M11210 11400 l0 -100 165 0 165 0 0 100 0 100 -165 0 -165 0 0 -100z"/>
<path d="M11580 11400 l0 -100 160 0 160 0 0 100 0 100 -160 0 -160 0 0 -100z"/>
<path d="M11930 11400 l0 -100 81 0 82 0 -6 58 c-4 32 -12 76 -19 98 l-13 39
-63 3 -62 3 0 -101z"/>
<path d="M6960 11313 c0 -5 40 -50 88 -101 l87 -93 219 3 218 3 -108 97 -109
98 -197 0 c-109 0 -198 -3 -198 -7z"/>
<path d="M7485 11244 c146 -137 113 -125 338 -122 l196 3 -85 98 -85 97 -222
0 -222 -1 80 -75z"/>
<path d="M7900 11314 c0 -3 37 -48 81 -100 77 -88 84 -94 120 -94 l39 0 0 100
0 100 -120 0 c-66 0 -120 -3 -120 -6z"/>
<path d="M12121 11225 c-2 -94 -2 -95 22 -95 22 0 74 51 175 173 14 16 9 17
-90 17 l-105 0 -2 -95z"/>
<path d="M12292 11225 l-83 -95 203 0 203 1 97 87 c53 48 97 90 97 95 1 4 -97
7 -217 7 l-218 0 -82 -95z"/>
<path d="M12764 11227 l-101 -92 219 -3 219 -2 53 57 c29 32 68 75 85 96 l33
37 -203 0 -204 -1 -101 -92z"/>
<path d="M8170 11160 l0 -100 315 0 315 0 0 100 0 100 -315 0 -315 0 0 -100z"/>
<path d="M8830 11160 l0 -100 170 0 170 0 0 100 0 100 -170 0 -170 0 0 -100z"/>
<path d="M9200 11160 l0 -100 165 0 165 0 0 100 0 100 -165 0 -165 0 0 -100z"/>
<path d="M9570 11160 l0 -100 165 0 165 0 0 100 0 100 -165 0 -165 0 0 -100z"/>
<path d="M9930 11160 l0 -100 165 0 165 0 0 33 c0 17 3 62 7 100 l6 67 -172 0
-171 0 0 -100z"/>
<path d="M10300 11191 c0 -38 -3 -83 -6 -100 l-6 -31 171 0 171 0 0 100 0 100
-165 0 -165 0 0 -69z"/>
<path d="M10660 11160 l0 -100 170 0 170 0 0 100 0 100 -170 0 -170 0 0 -100z"/>
<path d="M11030 11160 l0 -100 165 0 165 0 0 100 0 100 -165 0 -165 0 0 -100z"/>
<path d="M11396 11214 c-3 -26 -6 -71 -6 -100 l0 -54 170 0 170 0 0 100 0 100
-164 0 -163 0 -7 -46z"/>
<path d="M11760 11160 l0 -100 165 0 165 0 0 100 0 100 -165 0 -165 0 0 -100z"/>
<path d="M7245 10995 l87 -95 242 0 241 1 -100 94 -100 94 -228 1 -229 0 87
-95z"/>
<path d="M7670 11076 c8 -8 55 -51 105 -95 l90 -81 137 0 138 0 0 44 c0 38 -6
51 -46 95 l-46 51 -196 0 c-170 0 -194 -2 -182 -14z"/>
<path d="M8110 11065 c13 -14 25 -25 27 -25 2 0 3 11 3 25 0 20 -5 25 -27 25
l-26 0 23 -25z"/>
<path d="M12146 11059 c-22 -26 -26 -40 -26 -95 l0 -64 120 0 120 0 100 91
c55 50 100 93 100 95 0 2 -87 4 -194 4 l-194 0 -26 -31z"/>
<path d="M12511 10997 l-103 -92 241 -3 242 -2 53 57 c29 32 68 75 85 96 l33
37 -223 0 -224 0 -104 -93z"/>
<path d="M8170 10930 l0 -100 160 0 160 0 0 100 0 100 -160 0 -160 0 0 -100z"/>
<path d="M8520 10930 l0 -100 168 2 167 3 3 98 3 97 -171 0 -170 0 0 -100z"/>
<path d="M8890 10930 l0 -100 165 0 165 0 0 100 0 100 -165 0 -165 0 0 -100z"/>
<path d="M9250 10930 l0 -100 170 0 170 0 0 100 0 100 -170 0 -170 0 0 -100z"/>
<path d="M9620 10930 l0 -100 165 0 165 0 0 100 0 100 -165 0 -165 0 0 -100z"/>
<path d="M9990 10930 l0 -100 165 0 165 0 0 100 0 100 -165 0 -165 0 0 -100z"/>
<path d="M10350 10930 l0 -100 170 0 170 0 0 100 0 100 -170 0 -170 0 0 -100z"/>
<path d="M10720 10930 l0 -100 165 0 165 0 0 100 0 100 -165 0 -165 0 0 -100z"/>
<path d="M11080 10930 l0 -100 170 0 170 0 0 100 0 100 -170 0 -170 0 0 -100z"/>
<path d="M11450 10930 l0 -100 165 0 165 0 0 100 0 100 -165 0 -165 0 0 -100z"/>
<path d="M11816 11008 c-3 -13 -6 -58 -6 -100 l0 -78 140 0 140 0 0 100 0 100
-134 0 c-130 0 -134 -1 -140 -22z"/>
<path d="M7330 10715 l0 -125 150 0 150 0 0 125 0 125 -150 0 -150 0 0 -125z"/>
<path d="M7660 10715 l0 -125 150 0 150 0 0 125 0 125 -150 0 -150 0 0 -125z"/>
<path d="M7990 10715 l0 -125 75 0 75 0 0 125 0 125 -75 0 -75 0 0 -125z"/>
<path d="M12120 10715 l0 -125 60 0 60 0 0 125 0 125 -60 0 -60 0 0 -125z"/>
<path d="M12270 10715 l0 -125 150 0 150 0 0 125 0 125 -150 0 -150 0 0 -125z"/>
<path d="M12600 10715 l0 -125 150 0 150 0 0 125 0 125 -150 0 -150 0 0 -125z"/>
<path d="M8170 10705 l0 -95 70 0 70 0 0 95 0 95 -70 0 -70 0 0 -95z"/>
<path d="M8340 10705 l0 -95 170 0 170 0 0 95 0 95 -170 0 -170 0 0 -95z"/>
<path d="M8710 10705 l0 -95 45 0 45 0 0 95 0 95 -45 0 -45 0 0 -95z"/>
<path d="M9850 10705 l0 -95 145 0 145 0 0 95 0 95 -145 0 -145 0 0 -95z"/>
<path d="M10170 10705 l0 -95 155 0 155 0 0 95 0 95 -155 0 -155 0 0 -95z"/>
<path d="M11530 10705 l0 -95 35 0 35 0 0 95 0 95 -35 0 -35 0 0 -95z"/>
<path d="M11630 10705 l0 -95 165 0 165 0 0 95 0 95 -165 0 -165 0 0 -95z"/>
<path d="M12000 10705 l0 -95 45 0 45 0 0 95 0 95 -45 0 -45 0 0 -95z"/>
<path d="M8880 10500 l0 -230 203 2 202 3 3 228 2 227 -205 0 -205 0 0 -230z"/>
<path d="M9360 10500 l0 -230 205 0 205 0 0 230 0 230 -205 0 -205 0 0 -230z"/>
<path d="M10560 10500 l0 -230 205 0 205 0 0 230 0 230 -205 0 -205 0 0 -230z"/>
<path d="M11040 10500 l0 -230 205 0 205 0 0 230 0 230 -205 0 -205 0 0 -230z"/>
<path d="M8170 10475 l0 -95 160 0 160 0 0 95 0 95 -160 0 -160 0 0 -95z"/>
<path d="M8520 10475 l0 -95 140 0 140 0 0 95 0 95 -140 0 -140 0 0 -95z"/>
<path d="M9850 10475 l0 -95 50 0 50 0 0 95 0 95 -50 0 -50 0 0 -95z"/>
<path d="M9980 10475 l0 -95 170 0 170 0 0 95 0 95 -170 0 -170 0 0 -95z"/>
<path d="M10350 10475 l0 -95 65 0 65 0 0 95 0 95 -65 0 -65 0 0 -95z"/>
<path d="M11530 10475 l0 -95 125 0 125 0 0 95 0 95 -125 0 -125 0 0 -95z"/>
<path d="M11820 10475 l0 -95 135 0 135 0 0 95 0 95 -135 0 -135 0 0 -95z"/>
<path d="M7255 10519 c-28 -22 -54 -45 -59 -50 -6 -5 86 -9 232 -9 l242 0 0
50 0 50 -183 0 -182 0 -50 -41z"/>
<path d="M7700 10510 l0 -50 165 0 165 0 0 50 0 50 -165 0 -165 0 0 -50z"/>
<path d="M8060 10510 l0 -50 40 0 40 0 0 50 0 50 -40 0 -40 0 0 -50z"/>
<path d="M12120 10510 c0 -47 2 -50 25 -50 23 0 25 3 25 50 0 47 -2 50 -25 50
-23 0 -25 -3 -25 -50z"/>
<path d="M12200 10510 l0 -50 160 0 160 0 0 50 0 50 -160 0 -160 0 0 -50z"/>
<path d="M12550 10510 l0 -50 246 0 246 0 -60 50 -60 50 -186 0 -186 0 0 -50z"/>
<path d="M7092 10384 c-41 -34 -42 -38 -42 -95 l0 -59 225 0 225 0 0 95 0 95
-183 0 -183 0 -42 -36z"/>
<path d="M7530 10325 l0 -95 160 0 160 0 0 95 0 95 -160 0 -160 0 0 -95z"/>
<path d="M7880 10325 l0 -95 130 0 130 0 0 95 0 95 -130 0 -130 0 0 -95z"/>
<path d="M12120 10325 l0 -95 110 0 110 0 0 95 0 95 -110 0 -110 0 0 -95z"/>
<path d="M12370 10325 l0 -95 165 0 165 0 0 95 0 95 -165 0 -165 0 0 -95z"/>
<path d="M12730 10325 l0 -95 225 0 225 0 0 58 c0 56 -1 59 -44 95 l-45 37
-180 0 -181 0 0 -95z"/>
<path d="M8170 10245 l0 -95 70 0 70 0 0 95 0 95 -70 0 -70 0 0 -95z"/>
<path d="M8340 10245 l0 -95 170 0 170 0 0 95 0 95 -170 0 -170 0 0 -95z"/>
<path d="M8710 10245 l0 -95 45 0 45 0 0 95 0 95 -45 0 -45 0 0 -95z"/>
<path d="M9850 10245 l0 -95 145 0 145 0 0 95 0 95 -145 0 -145 0 0 -95z"/>
<path d="M10170 10245 l0 -95 155 0 155 0 0 95 0 95 -155 0 -155 0 0 -95z"/>
<path d="M11530 10245 l0 -95 35 0 35 0 0 95 0 95 -35 0 -35 0 0 -95z"/>
<path d="M11640 10245 l0 -95 160 0 160 0 0 95 0 95 -160 0 -160 0 0 -95z"/>
<path d="M12000 10245 l0 -95 45 0 45 0 0 95 0 95 -45 0 -45 0 0 -95z"/>
<path d="M6975 10283 c-19 -20 -35 -40 -35 -45 0 -4 18 -8 40 -8 l40 0 0 45
c0 25 -2 45 -5 45 -2 0 -20 -16 -40 -37z"/>
<path d="M13210 10277 l0 -47 41 0 40 0 -19 28 c-11 15 -29 36 -41 46 l-21 19
0 -46z"/>
<path d="M6910 10175 c-8 -22 -30 -135 -30 -157 0 -5 70 -8 155 -8 l155 0 0
95 0 95 -135 0 -135 0 -10 -25z"/>
<path d="M7220 10105 l0 -95 225 0 225 0 0 95 0 95 -225 0 -225 0 0 -95z"/>
<path d="M7700 10105 l0 -95 165 0 165 0 0 95 0 95 -165 0 -165 0 0 -95z"/>
<path d="M8060 10105 l0 -95 40 0 40 0 0 95 0 95 -40 0 -40 0 0 -95z"/>
<path d="M8880 9975 l0 -225 205 0 205 0 0 225 0 225 -205 0 -205 0 0 -225z"/>
<path d="M9360 9975 l0 -225 205 0 205 0 0 225 0 225 -205 0 -205 0 0 -225z"/>
<path d="M10560 9970 l0 -230 205 0 205 0 0 230 0 230 -205 0 -205 0 0 -230z"/>
<path d="M11040 9970 l0 -230 205 0 205 0 0 230 0 230 -205 0 -205 0 0 -230z"/>
<path d="M12120 10105 c0 -95 0 -95 25 -95 25 0 25 0 25 95 0 95 0 95 -25 95
-25 0 -25 0 -25 -95z"/>
<path d="M12200 10105 l0 -95 160 0 160 0 0 95 0 95 -160 0 -160 0 0 -95z"/>
<path d="M12550 10105 l0 -95 225 0 225 0 0 95 0 95 -225 0 -225 0 0 -95z"/>
<path d="M13030 10105 l0 -95 156 0 157 0 -6 53 c-3 30 -11 72 -18 95 l-12 42
-139 0 -138 0 0 -95z"/>
<path d="M8170 10020 l0 -100 160 0 160 0 0 100 0 100 -160 0 -160 0 0 -100z"/>
<path d="M8520 10020 l0 -100 140 0 140 0 0 100 0 100 -140 0 -140 0 0 -100z"/>
<path d="M9850 10020 l0 -100 50 0 50 0 0 100 0 100 -50 0 -50 0 0 -100z"/>
<path d="M9987 10113 c-4 -3 -7 -48 -7 -100 l0 -93 170 0 170 0 0 100 0 100
-163 0 c-90 0 -167 -3 -170 -7z"/>
<path d="M10350 10020 l0 -100 65 0 65 0 0 100 0 100 -65 0 -65 0 0 -100z"/>
<path d="M11530 10020 l0 -100 125 0 125 0 0 100 0 100 -125 0 -125 0 0 -100z"/>
<path d="M11820 10020 l0 -100 135 0 135 0 0 100 0 100 -135 0 -135 0 0 -100z"/>
<path d="M6882 9883 l3 -98 308 -3 307 -2 0 100 0 100 -310 0 -311 0 3 -97z"/>
<path d="M7530 9880 l0 -100 160 0 160 0 0 100 0 100 -160 0 -160 0 0 -100z"/>
<path d="M7880 9880 l0 -100 130 0 130 0 0 100 0 100 -130 0 -130 0 0 -100z"/>
<path d="M12120 9880 l0 -100 110 0 110 0 0 100 0 100 -110 0 -110 0 0 -100z"/>
<path d="M12370 9880 l0 -100 163 2 162 3 3 98 3 97 -166 0 -165 0 0 -100z"/>
<path d="M12730 9880 l0 -100 305 0 305 0 0 100 0 100 -305 0 -305 0 0 -100z"/>
<path d="M8170 9790 l0 -100 70 0 70 0 0 100 0 100 -70 0 -70 0 0 -100z"/>
<path d="M8340 9790 l0 -100 170 0 170 0 0 100 0 100 -170 0 -170 0 0 -100z"/>
<path d="M8710 9790 l0 -100 45 0 45 0 0 100 0 100 -45 0 -45 0 0 -100z"/>
<path d="M9850 9790 l0 -100 145 0 145 0 0 100 0 100 -145 0 -145 0 0 -100z"/>
<path d="M10170 9790 l0 -100 155 0 155 0 0 100 0 100 -155 0 -155 0 0 -100z"/>
<path d="M11530 9790 l0 -100 35 0 35 0 0 100 0 100 -35 0 -35 0 0 -100z"/>
<path d="M11636 9853 c-3 -21 -6 -66 -6 -100 l0 -63 165 0 165 0 0 100 0 100
-159 0 -158 0 -7 -37z"/>
<path d="M12000 9790 l0 -100 45 0 45 0 0 100 0 100 -45 0 -45 0 0 -100z"/>
<path d="M6880 9655 l0 -95 155 0 155 0 0 95 0 95 -155 0 -155 0 0 -95z"/>
<path d="M7220 9655 l0 -95 165 0 165 0 0 95 0 95 -165 0 -165 0 0 -95z"/>
<path d="M7580 9655 l0 -95 160 0 160 0 0 95 0 95 -160 0 -160 0 0 -95z"/>
<path d="M7940 9655 l0 -95 100 0 100 0 0 95 0 95 -100 0 -100 0 0 -95z"/>
<path d="M12120 9655 l0 -95 85 0 85 0 0 95 0 95 -85 0 -85 0 0 -95z"/>
<path d="M12320 9655 l0 -95 163 2 162 3 3 93 3 92 -166 0 -165 0 0 -95z"/>
<path d="M12680 9655 l0 -95 160 0 160 0 0 95 0 95 -160 0 -160 0 0 -95z"/>
<path d="M13030 9655 l0 -95 155 0 155 0 0 95 0 95 -155 0 -155 0 0 -95z"/>
<path d="M8170 9560 l0 -100 160 0 160 0 0 100 0 100 -160 0 -160 0 0 -100z"/>
<path d="M8520 9560 l0 -100 170 0 170 0 0 100 0 100 -170 0 -170 0 0 -100z"/>
<path d="M8890 9560 l0 -100 165 0 165 0 0 100 0 100 -165 0 -165 0 0 -100z"/>
<path d="M9250 9560 l0 -100 164 0 163 0 7 61 c3 34 6 79 6 100 l0 39 -170 0
-170 0 0 -100z"/>
<path d="M9618 9560 l-3 -100 168 0 167 0 0 100 0 100 -164 0 -165 0 -3 -100z"/>
<path d="M9987 9653 c-4 -3 -7 -48 -7 -100 l0 -93 170 0 170 0 0 100 0 100
-163 0 c-90 0 -167 -3 -170 -7z"/>
<path d="M10350 9560 l0 -100 165 0 165 0 0 63 c0 34 3 79 6 100 l7 37 -172 0
-171 0 0 -100z"/>
<path d="M10720 9621 c0 -21 -3 -66 -6 -100 l-7 -61 172 0 171 0 0 100 0 100
-165 0 -165 0 0 -39z"/>
<path d="M11080 9560 l0 -100 170 0 170 0 0 100 0 100 -170 0 -170 0 0 -100z"/>
<path d="M11450 9560 l0 -100 165 0 165 0 0 100 0 100 -165 0 -165 0 0 -100z"/>
<path d="M11820 9560 l0 -100 135 0 135 0 0 100 0 100 -135 0 -135 0 0 -100z"/>
<path d="M6880 9435 l0 -95 70 0 70 0 0 95 0 95 -70 0 -70 0 0 -95z"/>
<path d="M7050 9435 l0 -95 160 0 160 0 0 95 0 95 -160 0 -160 0 0 -95z"/>
<path d="M7400 9435 l0 -95 165 0 165 0 0 95 0 95 -165 0 -165 0 0 -95z"/>
<path d="M7760 9435 l0 -95 165 0 165 0 0 95 0 95 -165 0 -165 0 0 -95z"/>
<path d="M8120 9435 c0 -57 4 -95 10 -95 6 0 10 38 10 95 0 57 -4 95 -10 95
-6 0 -10 -38 -10 -95z"/>
<path d="M12140 9435 l0 -95 160 0 160 0 0 95 0 95 -160 0 -160 0 0 -95z"/>
<path d="M12500 9435 l0 -95 160 0 160 0 0 95 0 95 -160 0 -160 0 0 -95z"/>
<path d="M12850 9435 l0 -95 165 0 165 0 0 95 0 95 -165 0 -165 0 0 -95z"/>
<path d="M13210 9435 l0 -95 65 0 65 0 0 95 0 95 -65 0 -65 0 0 -95z"/>
<path d="M8170 8640 l0 -790 230 0 230 0 0 105 0 105 -225 0 c-193 0 -225 2
-225 15 0 13 22 15 135 15 l135 0 0 95 0 95 -136 0 c-124 0 -135 2 -132 18 3
15 23 17 226 20 l222 2 0 100 0 100 -225 0 c-193 0 -225 2 -225 15 0 13 22 15
135 15 l135 0 0 95 0 94 -132 3 c-117 3 -133 5 -136 21 -3 16 13 17 222 17
l226 0 0 100 0 100 -225 0 c-193 0 -225 2 -225 15 0 13 22 15 135 15 l135 0 0
95 0 95 -135 0 c-113 0 -135 2 -135 15 0 12 34 15 223 17 l222 3 3 98 3 97
-231 0 -230 0 0 -790z"/>
<path d="M8660 9330 l0 -100 165 0 165 0 0 100 0 100 -165 0 -165 0 0 -100z"/>
<path d="M9020 9330 l0 -100 170 0 170 0 0 100 0 100 -170 0 -170 0 0 -100z"/>
<path d="M9390 9330 l0 -100 165 0 165 0 0 100 0 100 -165 0 -165 0 0 -100z"/>
<path d="M9760 9330 l0 -100 165 0 165 0 0 100 0 100 -165 0 -165 0 0 -100z"/>
<path d="M10120 9330 l0 -100 170 0 170 0 0 100 0 100 -170 0 -170 0 0 -100z"/>
<path d="M10490 9330 l0 -100 165 0 165 0 0 100 0 100 -165 0 -165 0 0 -100z"/>
<path d="M10852 9333 l3 -98 168 -3 167 -2 0 100 0 100 -170 0 -171 0 3 -97z"/>
<path d="M11220 9330 l0 -100 165 0 165 0 0 100 0 100 -165 0 -165 0 0 -100z"/>
<path d="M11590 9330 l0 -100 165 0 165 0 0 100 0 100 -165 0 -165 0 0 -100z"/>
<path d="M11950 9330 l0 -100 70 0 70 0 0 100 0 100 -70 0 -70 0 0 -100z"/>
<path d="M6880 9215 l0 -95 155 0 155 0 0 95 0 95 -155 0 -155 0 0 -95z"/>
<path d="M7220 9215 l0 -95 165 0 165 0 0 95 0 95 -165 0 -165 0 0 -95z"/>
<path d="M7580 9215 l0 -95 160 0 160 0 0 95 0 95 -160 0 -160 0 0 -95z"/>
<path d="M7940 9215 l0 -95 100 0 100 0 0 95 0 95 -100 0 -100 0 0 -95z"/>
<path d="M12120 9215 l0 -95 85 0 85 0 0 95 0 95 -85 0 -85 0 0 -95z"/>
<path d="M12320 9215 l0 -95 165 0 165 0 0 95 0 95 -165 0 -165 0 0 -95z"/>
<path d="M12680 9215 l0 -95 160 0 160 0 0 95 0 95 -160 0 -160 0 0 -95z"/>
<path d="M13030 9215 l0 -95 155 0 155 0 0 95 0 95 -155 0 -155 0 0 -95z"/>
<path d="M8480 9105 l0 -95 165 0 165 0 0 95 0 95 -165 0 -165 0 0 -95z"/>
<path d="M8840 9105 l0 -95 170 0 170 0 0 95 0 95 -170 0 -170 0 0 -95z"/>
<path d="M9210 9105 l0 -95 165 0 165 0 0 95 0 95 -165 0 -165 0 0 -95z"/>
<path d="M9580 9114 l0 -87 43 39 c52 49 103 80 176 110 l56 24 -137 0 -138 0
0 -86z"/>
<path d="M10493 9175 c31 -13 77 -37 102 -54 l45 -30 0 54 0 55 -102 0 -103
-1 58 -24z"/>
<path d="M10670 9136 c0 -55 4 -69 26 -95 l26 -31 144 0 144 0 0 95 0 95 -170
0 -170 0 0 -64z"/>
<path d="M11040 9105 l0 -95 170 0 170 0 0 95 0 95 -170 0 -170 0 0 -95z"/>
<path d="M11410 9105 l0 -95 165 0 165 0 0 95 0 95 -165 0 -165 0 0 -95z"/>
<path d="M11770 9105 l0 -95 160 0 160 0 0 95 0 95 -160 0 -160 0 0 -95z"/>
<path d="M9902 9130 c-208 -55 -350 -202 -424 -440 l-23 -75 -3 -1177 -2
-1178 336 0 337 0 -6 578 c-4 317 -7 967 -7 1445 l0 867 -67 -1 c-38 0 -101
-9 -141 -19z"/>
<path d="M10183 8528 c4 -343 7 -993 7 -1445 l0 -823 325 0 326 0 -3 1178 -3
1177 -23 75 c-55 178 -160 320 -289 388 -79 41 -198 72 -281 72 l-65 0 6 -622z"/>
<path d="M6880 8995 l0 -95 70 0 70 0 0 95 0 95 -70 0 -70 0 0 -95z"/>
<path d="M7050 8995 l0 -95 160 0 160 0 0 95 0 95 -160 0 -160 0 0 -95z"/>
<path d="M7400 8995 l0 -95 165 0 165 0 0 95 0 95 -165 0 -165 0 0 -95z"/>
<path d="M7760 8995 l0 -95 165 0 165 0 0 95 0 95 -165 0 -165 0 0 -95z"/>
<path d="M8120 8995 c0 -57 4 -95 10 -95 6 0 10 38 10 95 0 57 -4 95 -10 95
-6 0 -10 -38 -10 -95z"/>
<path d="M12140 8995 l0 -95 160 0 160 0 0 95 0 95 -160 0 -160 0 0 -95z"/>
<path d="M12500 8995 l0 -95 160 0 160 0 0 95 0 95 -160 0 -160 0 0 -95z"/>
<path d="M12850 8995 l0 -95 165 0 165 0 0 95 0 95 -165 0 -165 0 0 -95z"/>
<path d="M13210 8995 l0 -95 65 0 65 0 0 95 0 95 -65 0 -65 0 0 -95z"/>
<path d="M8660 8880 l0 -100 165 0 165 0 0 100 0 100 -165 0 -165 0 0 -100z"/>
<path d="M9020 8880 l0 -100 170 0 170 0 0 100 0 100 -170 0 -170 0 0 -100z"/>
<path d="M9390 8880 c0 -92 2 -100 19 -100 14 0 28 18 50 66 17 36 40 78 51
94 11 15 20 31 20 34 0 3 -31 6 -70 6 l-70 0 0 -100z"/>
<path d="M10762 8963 c9 -10 25 -34 37 -53 l21 -35 0 53 0 52 -37 0 c-34 0
-35 -1 -21 -17z"/>
<path d="M10850 8896 c0 -46 3 -91 6 -100 5 -14 30 -16 170 -16 l164 0 0 100
0 100 -170 0 -170 0 0 -84z"/>
<path d="M11220 8880 l0 -100 165 0 164 0 3 92 c3 77 6 93 20 96 15 3 16 -7
11 -92 l-6 -96 172 0 171 0 0 100 0 100 -350 0 -350 0 0 -100z"/>
<path d="M11950 8880 l0 -100 70 0 70 0 0 100 0 100 -70 0 -70 0 0 -100z"/>
<path d="M6880 8775 l0 -95 155 0 155 0 0 95 0 95 -155 0 -155 0 0 -95z"/>
<path d="M7220 8775 l0 -95 165 0 165 0 0 95 0 95 -165 0 -165 0 0 -95z"/>
<path d="M7580 8775 l0 -95 160 0 160 0 0 95 0 95 -160 0 -160 0 0 -95z"/>
<path d="M7940 8775 l0 -95 100 0 100 0 0 95 0 95 -100 0 -100 0 0 -95z"/>
<path d="M12120 8775 l0 -95 85 0 85 0 0 95 0 95 -85 0 -85 0 0 -95z"/>
<path d="M12320 8775 l0 -95 165 0 165 0 0 95 0 95 -165 0 -165 0 0 -95z"/>
<path d="M12680 8775 l0 -95 160 0 160 0 0 95 0 95 -160 0 -160 0 0 -95z"/>
<path d="M13030 8775 l0 -95 155 0 155 0 0 95 0 95 -155 0 -155 0 0 -95z"/>
<path d="M8480 8645 l0 -95 165 0 165 0 0 95 0 95 -165 0 -165 0 0 -95z"/>
<path d="M8840 8645 l0 -95 170 0 170 0 0 95 0 95 -170 0 -170 0 0 -95z"/>
<path d="M9210 8645 l0 -95 83 0 83 0 12 68 c7 37 15 79 18 95 l6 27 -101 0
-101 0 0 -95z"/>
<path d="M10884 8713 c3 -16 11 -58 18 -95 l12 -68 48 0 48 0 0 95 0 95 -66 0
-66 0 6 -27z"/>
<path d="M11040 8645 l0 -95 165 0 165 0 0 95 0 95 -165 0 -165 0 0 -95z"/>
<path d="M11406 8688 c-3 -29 -6 -72 -6 -95 l0 -43 170 0 170 0 0 95 0 95
-164 0 -163 0 -7 -52z"/>
<path d="M11770 8645 l0 -95 160 0 160 0 0 95 0 95 -160 0 -160 0 0 -95z"/>
<path d="M6880 8555 l0 -95 70 0 70 0 0 95 0 95 -70 0 -70 0 0 -95z"/>
<path d="M7050 8555 l0 -95 160 0 160 0 0 95 0 95 -160 0 -160 0 0 -95z"/>
<path d="M7400 8555 l0 -95 165 0 165 0 0 95 0 95 -165 0 -165 0 0 -95z"/>
<path d="M7760 8555 l0 -95 165 0 165 0 0 95 0 95 -165 0 -165 0 0 -95z"/>
<path d="M8120 8555 c0 -57 4 -95 10 -95 6 0 10 38 10 95 0 57 -4 95 -10 95
-6 0 -10 -38 -10 -95z"/>
<path d="M12140 8555 l0 -95 160 0 160 0 0 95 0 95 -160 0 -160 0 0 -95z"/>
<path d="M12500 8555 l0 -95 160 0 160 0 0 95 0 95 -160 0 -160 0 0 -95z"/>
<path d="M12850 8555 l0 -95 165 0 165 0 0 95 0 95 -165 0 -165 0 0 -95z"/>
<path d="M13210 8555 l0 -95 65 0 65 0 0 95 0 95 -65 0 -65 0 0 -95z"/>
<path d="M8660 8420 l0 -100 165 0 165 0 0 100 0 100 -165 0 -165 0 0 -100z"/>
<path d="M9020 8420 l0 -100 170 0 170 0 0 100 0 100 -170 0 -170 0 0 -100z"/>
<path d="M10920 8420 l0 -100 135 0 135 0 0 100 0 100 -135 0 -135 0 0 -100z"/>
<path d="M11220 8420 l0 -100 165 0 166 0 -3 98 -3 97 -162 3 -163 2 0 -100z"/>
<path d="M11580 8420 l0 -100 170 0 170 0 0 100 0 100 -170 0 -170 0 0 -100z"/>
<path d="M11950 8420 l0 -100 70 0 70 0 0 100 0 100 -70 0 -70 0 0 -100z"/>
<path d="M6880 8335 l0 -95 155 0 155 0 0 95 0 95 -155 0 -155 0 0 -95z"/>
<path d="M7220 8335 l0 -95 165 0 165 0 0 95 0 95 -165 0 -165 0 0 -95z"/>
<path d="M7580 8335 l0 -95 160 0 160 0 0 95 0 95 -160 0 -160 0 0 -95z"/>
<path d="M7940 8335 l0 -95 100 0 100 0 0 95 0 95 -100 0 -100 0 0 -95z"/>
<path d="M12120 8335 l0 -95 85 0 85 0 0 95 0 95 -85 0 -85 0 0 -95z"/>
<path d="M12320 8335 l0 -95 165 0 165 0 0 95 0 95 -165 0 -165 0 0 -95z"/>
<path d="M12680 8335 l0 -95 160 0 160 0 0 95 0 95 -160 0 -160 0 0 -95z"/>
<path d="M13030 8335 l0 -95 155 0 155 0 0 95 0 95 -155 0 -155 0 0 -95z"/>
<path d="M8480 8185 l0 -95 165 0 165 0 0 95 0 95 -165 0 -165 0 0 -95z"/>
<path d="M8840 8185 l0 -95 170 0 170 0 0 95 0 95 -170 0 -170 0 0 -95z"/>
<path d="M9210 8185 l0 -95 80 0 80 0 0 95 0 95 -80 0 -80 0 0 -95z"/>
<path d="M10920 8185 l0 -95 45 0 45 0 0 95 0 95 -45 0 -45 0 0 -95z"/>
<path d="M11040 8185 l0 -95 165 0 165 0 0 95 0 95 -165 0 -165 0 0 -95z"/>
<path d="M11406 8234 c-3 -26 -6 -69 -6 -95 l0 -49 170 0 170 0 0 95 0 95
-164 0 -163 0 -7 -46z"/>
<path d="M11770 8185 l0 -95 160 0 160 0 0 95 0 95 -160 0 -160 0 0 -95z"/>
<path d="M6880 8115 l0 -95 220 0 220 0 0 95 0 95 -220 0 -220 0 0 -95z"/>
<path d="M7360 8115 l0 -95 160 0 160 0 0 95 0 95 -160 0 -160 0 0 -95z"/>
<path d="M7710 8115 l0 -95 165 0 165 0 0 95 0 95 -165 0 -165 0 0 -95z"/>
<path d="M8070 8115 l0 -95 35 0 35 0 0 95 0 95 -35 0 -35 0 0 -95z"/>
<path d="M12120 8115 c0 -88 1 -95 20 -95 19 0 20 7 20 95 0 88 -1 95 -20 95
-19 0 -20 -7 -20 -95z"/>
<path d="M12190 8115 l0 -95 160 0 160 0 0 95 0 95 -160 0 -160 0 0 -95z"/>
<path d="M12540 8115 l0 -95 165 0 165 0 0 95 0 95 -165 0 -165 0 0 -95z"/>
<path d="M12900 8115 l0 -95 220 0 220 0 0 95 0 95 -220 0 -220 0 0 -95z"/>
<path d="M8660 7955 l0 -105 165 0 165 0 0 105 0 105 -165 0 -165 0 0 -105z"/>
<path d="M9020 7955 l0 -105 170 0 170 0 0 105 0 105 -170 0 -170 0 0 -105z"/>
<path d="M10920 7955 l0 -105 135 0 135 0 0 105 0 105 -135 0 -135 0 0 -105z"/>
<path d="M11220 7955 l0 -105 165 0 165 0 0 105 0 105 -165 0 -165 0 0 -105z"/>
<path d="M11590 7955 l0 -105 165 0 165 0 0 105 0 105 -165 0 -165 0 0 -105z"/>
<path d="M11950 7955 l0 -105 70 0 70 0 0 105 0 105 -70 0 -70 0 0 -105z"/>
<path d="M6880 7895 l0 -95 135 0 135 0 0 95 0 95 -135 0 -135 0 0 -95z"/>
<path d="M7180 7895 l0 -95 165 0 165 0 0 95 0 95 -165 0 -165 0 0 -95z"/>
<path d="M7540 7895 l0 -95 160 0 160 0 0 95 0 95 -160 0 -160 0 0 -95z"/>
<path d="M7890 7895 l0 -95 125 0 125 0 0 95 0 95 -125 0 -125 0 0 -95z"/>
<path d="M12120 7895 l0 -95 105 0 105 0 0 95 0 95 -105 0 -105 0 0 -95z"/>
<path d="M12360 7895 l0 -95 165 0 165 0 0 95 0 95 -165 0 -165 0 0 -95z"/>
<path d="M12720 7895 l0 -95 160 0 160 0 0 95 0 95 -160 0 -160 0 0 -95z"/>
<path d="M13072 7898 l3 -93 133 -3 132 -3 0 96 0 95 -135 0 -136 0 3 -92z"/>
<path d="M8170 7720 l0 -100 155 0 155 0 0 100 0 100 -155 0 -155 0 0 -100z"/>
<path d="M8510 7720 l0 -100 170 0 170 0 0 100 0 100 -170 0 -170 0 0 -100z"/>
<path d="M8880 7720 l0 -100 165 0 165 0 0 100 0 100 -165 0 -165 0 0 -100z"/>
<path d="M9250 7720 l0 -100 60 0 60 0 0 100 0 100 -60 0 -60 0 0 -100z"/>
<path d="M10920 7720 l0 -100 65 0 66 0 -3 98 -3 97 -62 3 -63 3 0 -101z"/>
<path d="M11080 7720 l0 -100 165 0 165 0 0 100 0 100 -165 0 -165 0 0 -100z"/>
<path d="M11440 7720 l0 -100 164 0 163 0 7 61 c3 34 6 79 6 100 l0 39 -170 0
-170 0 0 -100z"/>
<path d="M11808 7720 l-3 -100 143 0 142 0 0 100 0 100 -139 0 -140 0 -3 -100z"/>
<path d="M6880 7675 l0 -95 220 0 220 0 0 95 0 95 -220 0 -220 0 0 -95z"/>
<path d="M7360 7675 l0 -95 160 0 160 0 0 95 0 95 -160 0 -160 0 0 -95z"/>
<path d="M7710 7675 l0 -95 165 0 165 0 0 95 0 95 -165 0 -165 0 0 -95z"/>
<path d="M8070 7675 l0 -95 35 0 35 0 0 95 0 95 -35 0 -35 0 0 -95z"/>
<path d="M12120 7675 c0 -88 1 -95 20 -95 19 0 20 7 20 95 0 88 -1 95 -20 95
-19 0 -20 -7 -20 -95z"/>
<path d="M12190 7675 l0 -95 160 0 160 0 0 95 0 95 -160 0 -160 0 0 -95z"/>
<path d="M12540 7675 l0 -95 165 0 165 0 0 95 0 95 -165 0 -165 0 0 -95z"/>
<path d="M12900 7675 l0 -95 220 0 220 0 0 95 0 95 -220 0 -220 0 0 -95z"/>
<path d="M8170 7490 l0 -100 65 0 65 0 0 100 0 100 -65 0 -65 0 0 -100z"/>
<path d="M8330 7490 l0 -100 170 0 170 0 0 100 0 100 -170 0 -170 0 0 -100z"/>
<path d="M8700 7490 l0 -100 170 0 170 0 0 100 0 100 -170 0 -170 0 0 -100z"/>
<path d="M9070 7490 l0 -100 150 0 150 0 0 100 0 100 -150 0 -150 0 0 -100z"/>
<path d="M10920 7490 l0 -100 155 0 155 0 0 100 0 100 -155 0 -155 0 0 -100z"/>
<path d="M11260 7490 l0 -100 165 0 165 0 0 48 c0 26 3 71 6 100 l7 52 -172 0
-171 0 0 -100z"/>
<path d="M11630 7490 l0 -100 165 0 165 0 0 100 0 100 -165 0 -165 0 0 -100z"/>
<path d="M11990 7490 l0 -100 50 0 50 0 0 100 0 100 -50 0 -50 0 0 -100z"/>
<path d="M6880 7455 l0 -95 135 0 135 0 0 95 0 95 -135 0 -135 0 0 -95z"/>
<path d="M7180 7455 l0 -95 165 0 165 0 0 95 0 95 -165 0 -165 0 0 -95z"/>
<path d="M7540 7455 l0 -95 160 0 160 0 0 95 0 94 -160 0 -160 0 0 -94z"/>
<path d="M7890 7455 l0 -95 125 0 125 0 0 94 0 94 -125 1 -125 1 0 -95z"/>
<path d="M12120 7455 l0 -95 105 0 105 0 0 95 0 95 -105 0 -105 0 0 -95z"/>
<path d="M12360 7455 l0 -95 165 0 165 0 0 95 0 95 -165 0 -165 0 0 -95z"/>
<path d="M12720 7455 l0 -95 160 0 160 0 0 95 0 95 -160 0 -160 0 0 -95z"/>
<path d="M13080 7455 l0 -95 130 0 130 0 0 95 0 95 -130 0 -130 0 0 -95z"/>
<path d="M8170 7260 l0 -100 155 0 155 0 0 100 0 100 -155 0 -155 0 0 -100z"/>
<path d="M8510 7260 l0 -100 170 0 170 0 0 100 0 100 -170 0 -170 0 0 -100z"/>
<path d="M8880 7260 l0 -100 165 0 165 0 0 100 0 100 -165 0 -165 0 0 -100z"/>
<path d="M9250 7260 l0 -100 60 0 60 0 0 100 0 100 -60 0 -60 0 0 -100z"/>
<path d="M10920 7260 l0 -100 65 0 65 0 0 100 0 100 -65 0 -65 0 0 -100z"/>
<path d="M11080 7260 l0 -100 165 0 165 0 0 100 0 100 -165 0 -165 0 0 -100z"/>
<path d="M11440 7260 l0 -100 170 0 170 0 0 100 0 100 -170 0 -170 0 0 -100z"/>
<path d="M11810 7260 l0 -100 140 0 140 0 0 100 0 100 -140 0 -140 0 0 -100z"/>
<path d="M6887 7323 c-4 -3 -7 -48 -7 -100 l0 -93 220 0 220 0 0 100 0 100
-213 0 c-118 0 -217 -3 -220 -7z"/>
<path d="M7360 7230 l0 -100 160 0 160 0 0 100 0 100 -160 0 -160 0 0 -100z"/>
<path d="M7710 7230 l0 -100 165 0 165 0 0 100 0 100 -165 0 -165 0 0 -100z"/>
<path d="M8070 7230 l0 -100 35 0 35 0 0 100 0 100 -35 0 -35 0 0 -100z"/>
<path d="M12120 7230 c0 -93 1 -100 20 -100 19 0 20 7 20 100 0 93 -1 100 -20
100 -19 0 -20 -7 -20 -100z"/>
<path d="M12190 7230 l0 -100 160 0 160 0 0 100 0 100 -160 0 -160 0 0 -100z"/>
<path d="M12540 7230 l0 -100 165 0 165 0 0 100 0 100 -165 0 -165 0 0 -100z"/>
<path d="M12900 7230 l0 -100 220 0 220 0 0 100 0 100 -220 0 -220 0 0 -100z"/>
<path d="M8170 7030 l0 -100 65 0 65 0 0 100 0 100 -65 0 -65 0 0 -100z"/>
<path d="M8330 7030 l0 -100 170 0 170 0 0 100 0 100 -170 0 -170 0 0 -100z"/>
<path d="M8700 7030 l0 -100 168 2 167 3 3 98 3 97 -171 0 -170 0 0 -100z"/>
<path d="M9070 7030 l0 -100 150 0 150 0 0 100 0 100 -150 0 -150 0 0 -100z"/>
<path d="M10920 7030 l0 -100 155 0 155 0 0 100 0 100 -155 0 -155 0 0 -100z"/>
<path d="M11260 7030 l0 -100 170 0 170 0 0 100 0 100 -170 0 -170 0 0 -100z"/>
<path d="M11630 7030 l0 -100 165 0 165 0 0 100 0 100 -165 0 -165 0 0 -100z"/>
<path d="M11990 7030 l0 -100 50 0 50 0 0 100 0 100 -50 0 -50 0 0 -100z"/>
<path d="M6880 7010 l0 -90 135 0 135 0 0 90 0 90 -135 0 -135 0 0 -90z"/>
<path d="M7180 7010 l0 -90 165 0 165 0 0 90 0 90 -165 0 -165 0 0 -90z"/>
<path d="M7540 7010 l0 -90 160 0 160 0 0 90 0 90 -160 0 -160 0 0 -90z"/>
<path d="M7890 7010 l0 -90 125 0 125 0 0 90 0 90 -125 0 -125 0 0 -90z"/>
<path d="M12120 7010 l0 -90 105 0 105 0 0 90 0 90 -105 0 -105 0 0 -90z"/>
<path d="M12360 7010 l0 -90 165 0 165 0 0 90 0 90 -165 0 -165 0 0 -90z"/>
<path d="M12720 7010 l0 -90 160 0 160 0 0 90 0 90 -160 0 -160 0 0 -90z"/>
<path d="M13070 7010 l0 -90 135 0 135 0 0 90 0 90 -135 0 -135 0 0 -90z"/>
<path d="M8170 6805 l0 -95 155 0 155 0 0 95 0 95 -155 0 -155 0 0 -95z"/>
<path d="M8510 6805 l0 -95 170 0 170 0 0 95 0 95 -170 0 -170 0 0 -95z"/>
<path d="M8880 6805 l0 -95 165 0 165 0 0 95 0 95 -165 0 -165 0 0 -95z"/>
<path d="M9250 6805 l0 -95 60 0 60 0 0 95 0 95 -60 0 -60 0 0 -95z"/>
<path d="M10920 6805 l0 -95 65 0 65 0 0 95 0 95 -65 0 -65 0 0 -95z"/>
<path d="M11080 6805 l0 -95 160 0 160 0 0 95 0 95 -160 0 -160 0 0 -95z"/>
<path d="M11430 6805 l0 -95 175 0 175 0 0 95 0 95 -175 0 -175 0 0 -95z"/>
<path d="M11810 6805 l0 -95 140 0 140 0 0 95 0 95 -140 0 -140 0 0 -95z"/>
<path d="M12120 6786 c0 -100 1 -106 20 -106 20 0 21 5 18 102 -3 89 -5 103
-20 106 -16 3 -18 -7 -18 -102z"/>
<path d="M12190 6785 l0 -105 160 0 160 0 0 105 0 105 -160 0 -160 0 0 -105z"/>
<path d="M12547 6883 c-4 -3 -7 -51 -7 -105 l0 -98 165 0 165 0 0 105 0 105
-158 0 c-87 0 -162 -3 -165 -7z"/>
<path d="M12900 6785 l0 -105 220 0 220 0 0 105 0 105 -220 0 -220 0 0 -105z"/>
<path d="M6880 6780 l0 -100 220 0 220 0 0 100 0 100 -220 0 -220 0 0 -100z"/>
<path d="M7358 6780 l-3 -100 163 0 162 0 0 100 0 100 -159 0 -160 0 -3 -100z"/>
<path d="M7710 6780 l0 -100 165 0 165 0 0 100 0 100 -165 0 -165 0 0 -100z"/>
<path d="M8070 6780 l0 -100 35 0 35 0 0 100 0 100 -35 0 -35 0 0 -100z"/>
<path d="M8170 6575 l0 -95 65 0 65 0 0 95 0 95 -65 0 -65 0 0 -95z"/>
<path d="M8330 6575 l0 -95 170 0 170 0 0 95 0 95 -170 0 -170 0 0 -95z"/>
<path d="M8700 6575 l0 -95 170 0 170 0 0 95 0 95 -170 0 -170 0 0 -95z"/>
<path d="M9070 6575 l0 -95 150 0 150 0 0 95 0 95 -150 0 -150 0 0 -95z"/>
<path d="M10920 6575 l0 -95 155 0 155 0 0 95 0 95 -155 0 -155 0 0 -95z"/>
<path d="M11260 6575 l0 -95 164 0 163 0 7 53 c3 28 6 71 6 95 l0 42 -170 0
-170 0 0 -95z"/>
<path d="M11630 6575 l0 -95 165 0 165 0 0 95 0 95 -165 0 -165 0 0 -95z"/>
<path d="M11990 6575 l0 -95 50 0 50 0 0 95 0 95 -50 0 -50 0 0 -95z"/>
<path d="M6880 6555 l0 -95 150 0 150 0 0 95 0 95 -150 0 -150 0 0 -95z"/>
<path d="M7220 6555 l0 -95 160 0 160 0 0 95 0 95 -160 0 -160 0 0 -95z"/>
<path d="M7570 6555 l0 -95 165 0 165 0 0 95 0 95 -165 0 -165 0 0 -95z"/>
<path d="M7930 6555 l0 -95 105 0 105 0 0 95 0 95 -105 0 -105 0 0 -95z"/>
<path d="M12120 6555 l0 -95 90 0 90 0 0 95 0 95 -90 0 -90 0 0 -95z"/>
<path d="M12330 6555 l0 -95 160 0 160 0 0 95 0 95 -160 0 -160 0 0 -95z"/>
<path d="M12680 6555 l0 -95 165 0 165 0 0 95 0 95 -165 0 -165 0 0 -95z"/>
<path d="M13040 6555 l0 -95 150 0 150 0 0 95 0 95 -150 0 -150 0 0 -95z"/>
<path d="M8170 6340 l0 -100 155 0 155 0 0 100 0 100 -155 0 -155 0 0 -100z"/>
<path d="M8510 6340 l0 -100 170 0 170 0 0 100 0 100 -170 0 -170 0 0 -100z"/>
<path d="M8880 6340 l0 -100 165 0 165 0 0 100 0 100 -165 0 -165 0 0 -100z"/>
<path d="M9250 6340 l0 -100 60 0 60 0 0 100 0 100 -60 0 -60 0 0 -100z"/>
<path d="M10920 6340 l0 -100 65 0 65 0 0 100 0 100 -65 0 -65 0 0 -100z"/>
<path d="M11080 6340 l0 -100 165 0 165 0 0 100 0 100 -165 0 -165 0 0 -100z"/>
<path d="M11440 6340 l0 -100 170 0 170 0 0 100 0 100 -170 0 -170 0 0 -100z"/>
<path d="M11810 6340 l0 -100 140 0 140 0 0 100 0 100 -140 0 -140 0 0 -100z"/>
<path d="M6880 6335 l0 -95 65 0 65 0 0 95 0 95 -65 0 -65 0 0 -95z"/>
<path d="M7040 6335 l0 -95 165 0 165 0 0 95 0 95 -165 0 -165 0 0 -95z"/>
<path d="M7400 6335 l0 -95 160 0 160 0 0 95 0 95 -160 0 -160 0 0 -95z"/>
<path d="M7750 6335 l0 -95 165 0 165 0 0 95 0 95 -165 0 -165 0 0 -95z"/>
<path d="M8110 6335 c0 -78 3 -95 15 -95 12 0 15 17 15 95 0 78 -3 95 -15 95
-12 0 -15 -17 -15 -95z"/>
<path d="M12150 6335 l0 -95 160 0 160 0 0 95 0 95 -160 0 -160 0 0 -95z"/>
<path d="M12500 6335 l0 -95 165 0 165 0 0 95 0 95 -165 0 -165 0 0 -95z"/>
<path d="M12860 6335 l0 -95 160 0 160 0 0 95 0 95 -160 0 -160 0 0 -95z"/>
<path d="M13210 6335 l0 -95 65 0 65 0 0 95 0 95 -65 0 -65 0 0 -95z"/>
<path d="M9875 5619 c-27 -73 -58 -143 -68 -155 -18 -24 -18 -24 5 -23 31 1
79 17 56 18 -20 1 -23 26 -8 65 9 24 14 26 70 26 59 0 61 -1 77 -36 15 -31 15
-36 3 -44 -10 -7 5 -9 45 -9 33 1 52 3 42 6 -11 3 -44 58 -87 144 -39 76 -74
139 -78 139 -4 0 -30 -59 -57 -131z m78 4 l26 -51 -50 -4 c-46 -3 -50 -1 -45
18 8 30 37 97 40 93 2 -2 15 -27 29 -56z"/>
<path d="M10222 5743 c15 -4 66 -109 114 -233 9 -25 20 -49 24 -53 5 -5 38 50
76 123 46 89 75 135 93 145 25 14 24 14 -28 15 -48 0 -52 -2 -37 -13 17 -12
15 -19 -31 -112 -28 -54 -52 -94 -55 -89 -14 23 -78 186 -78 198 0 8 8 17 18
19 9 3 -12 5 -48 5 -36 0 -58 -2 -48 -5z"/>
<path d="M9630 5720 c-24 -8 -24 -8 -3 -9 26 -1 28 -9 43 -131 14 -119 13
-138 -7 -143 -10 -3 0 -5 22 -5 22 0 51 4 65 8 23 8 24 8 3 9 -25 1 -27 8 -43
161 -9 85 -8 96 7 108 14 10 11 12 -23 11 -21 -1 -50 -5 -64 -9z"/>
<path d="M10593 5718 c15 -12 15 -23 2 -138 -8 -69 -14 -126 -15 -127 0 -2
-10 -4 -22 -4 -19 -1 -17 -3 7 -9 17 -4 45 -8 64 -9 32 -1 33 0 16 13 -18 13
-18 19 -6 127 16 134 17 139 45 140 19 1 19 2 -4 9 -14 4 -43 8 -64 9 -34 1
-37 -1 -23 -11z"/>
<path d="M9538 5713 c-42 -5 -45 -8 -25 -28 13 -13 41 -174 32 -183 -2 -3 -30
17 -62 44 -149 126 -149 127 -201 119 l-47 -7 35 -12 c34 -11 35 -13 57 -111
27 -122 28 -141 6 -155 -16 -10 -16 -11 2 -6 11 2 36 8 55 12 33 7 34 8 10 14
-23 5 -27 15 -46 108 -25 120 -34 121 119 -7 121 -103 116 -106 92 49 -20 130
-19 145 8 158 12 6 18 10 12 10 -5 -1 -27 -3 -47 -5z"/>
<path d="M10738 5701 c25 -16 31 -26 28 -43 -3 -13 -10 -59 -16 -103 -16 -120
-18 -125 -43 -126 -18 -1 -16 -3 8 -9 17 -4 41 -8 55 -8 16 0 18 2 8 5 -21 5
-22 42 -5 153 l12 75 51 -80 c28 -44 63 -104 79 -132 15 -29 31 -53 35 -53 4
0 19 59 34 132 14 72 31 135 38 139 17 11 9 15 -37 22 -22 4 -33 4 -25 0 26
-10 28 -23 14 -96 -25 -133 -20 -129 -68 -46 -75 131 -110 179 -131 179 -11 0
-31 3 -45 6 -22 5 -21 3 8 -15z"/>
<path d="M9172 5643 c-28 -5 -34 -22 -57 -133 -9 -47 -19 -94 -22 -104 -4 -16
-21 -3 -92 74 l-86 92 -45 -12 c-40 -12 -42 -14 -20 -19 22 -6 30 -21 63 -121
29 -88 35 -119 27 -132 -12 -22 0 -22 50 -3 33 13 34 14 8 14 -25 1 -29 7 -53
89 -40 135 -41 131 2 87 21 -22 62 -67 90 -99 29 -33 55 -57 58 -55 2 3 11 39
19 80 8 41 20 99 27 129 l12 55 23 -90 c29 -110 30 -145 7 -145 -9 0 -14 -3
-10 -6 3 -3 31 0 62 7 45 10 53 14 37 20 -21 8 -27 23 -56 152 -19 83 -20 114
-3 120 15 7 -8 6 -41 0z"/>
<path d="M14144 5615 c-48 -48 -20 -97 86 -150 72 -36 94 -65 68 -92 -32 -31
-100 -15 -129 30 -19 28 -20 29 -15 7 3 -14 6 -34 6 -45 0 -18 8 -20 70 -23
59 -2 73 1 90 18 24 24 26 68 2 97 -9 11 -49 37 -88 57 -75 37 -91 55 -74 87
21 38 87 20 121 -34 l20 -32 -6 35 c-12 66 -11 65 -71 67 -47 2 -59 -1 -80
-22z"/>
<path d="M11134 5610 c-79 -40 -109 -149 -61 -221 27 -40 79 -69 125 -69 35 0
102 26 102 40 0 4 -17 -1 -37 -11 -37 -19 -50 -18 -106 3 -77 30 -72 191 7
244 55 36 147 -3 161 -68 8 -36 11 -34 24 21 8 36 7 42 -6 37 -8 -4 -30 3 -48
14 -50 31 -112 35 -161 10z"/>
<path d="M13995 5610 c-19 -8 -19 -9 3 -9 12 -1 22 -3 22 -5 0 -2 7 -40 15
-83 22 -113 20 -138 -11 -162 -15 -12 -41 -21 -60 -21 -55 0 -80 50 -101 199
-5 35 -3 47 12 57 15 11 13 12 -21 7 -22 -3 -50 -10 -64 -14 -23 -7 -23 -7 -3
-8 25 -1 26 -4 49 -124 14 -74 21 -92 46 -112 36 -30 87 -33 138 -7 51 25 57
54 37 170 -16 91 -16 98 0 110 15 10 13 12 -13 11 -16 0 -38 -4 -49 -9z"/>
<path d="M11413 5559 c9 -5 17 -17 17 -26 0 -36 -63 -219 -80 -234 -18 -15
-17 -17 22 -28 22 -7 47 -15 57 -17 13 -5 13 -4 -1 6 -24 15 -23 29 11 136 35
111 47 134 69 135 19 1 -75 37 -98 38 -12 0 -11 -2 3 -10z"/>
<path d="M13550 5537 c-65 -12 -66 -13 -51 -30 15 -19 54 -213 48 -243 -5 -28
2 -29 88 -10 95 20 125 44 125 99 0 27 -28 57 -54 57 -16 0 -16 2 -2 22 24 34
20 73 -10 97 -29 23 -57 24 -144 8z m110 -27 c40 -40 19 -84 -47 -98 l-42 -10
-12 55 c-9 45 -8 57 3 64 24 16 77 10 98 -11z m28 -126 c22 -15 30 -57 14 -80
-12 -18 -49 -34 -80 -34 -27 0 -29 3 -39 56 -9 52 -9 56 11 64 33 14 70 11 94
-6z"/>
<path d="M6623 5513 c21 -6 22 -42 2 -178 -8 -55 -15 -104 -15 -108 0 -4 -10
-12 -22 -18 -19 -8 -18 -9 11 -4 18 3 70 5 115 5 l81 0 18 43 18 42 -30 -32
c-27 -30 -36 -33 -85 -33 l-56 0 0 33 c0 51 20 199 30 224 5 12 19 23 32 26
13 2 -8 4 -47 4 -38 1 -62 -1 -52 -4z"/>
<path d="M11552 5495 c-17 -36 -15 -41 8 -20 18 16 25 17 60 6 l39 -12 -33
-92 c-51 -140 -54 -145 -72 -155 -13 -7 -8 -12 31 -26 27 -9 51 -14 53 -11 3
3 0 5 -6 5 -21 0 -13 44 29 150 22 58 42 106 44 108 2 2 17 -4 34 -12 34 -18
55 -50 45 -69 -5 -8 -4 -9 4 -2 6 6 14 22 17 36 6 26 4 28 -97 67 -150 57
-143 56 -156 27z"/>
<path d="M8635 5486 c-93 -40 -122 -160 -58 -237 52 -61 122 -75 194 -39 53
28 79 72 79 136 0 114 -111 186 -215 140z m103 -22 c36 -25 65 -93 66 -152 1
-47 -3 -57 -27 -78 -35 -30 -85 -31 -120 -4 -35 28 -67 98 -67 149 0 80 85
129 148 85z"/>
<path d="M6946 5354 c-44 -69 -88 -132 -100 -140 -20 -13 -19 -14 11 -14 17 0
40 -3 50 -6 17 -5 17 -5 0 9 -17 14 -17 17 -3 45 22 42 27 44 85 31 58 -12 57
-11 66 -62 6 -31 5 -37 -11 -37 -28 0 -10 -10 46 -25 50 -13 51 -13 36 4 -9
10 -33 83 -53 162 -20 79 -39 147 -42 151 -4 4 -42 -49 -85 -118z m77 -8 l16
-58 -41 6 c-23 4 -45 9 -49 12 -4 2 6 27 23 54 17 28 32 49 34 48 1 -2 9 -29
17 -62z"/>
<path d="M13275 5469 c-42 -12 -91 -66 -104 -113 -14 -54 2 -116 41 -153 25
-24 37 -28 88 -28 71 0 104 21 138 86 40 76 12 166 -61 200 -46 20 -58 21
-102 8z m87 -34 c55 -55 62 -180 13 -222 -60 -52 -131 -17 -154 74 -17 65 -6
117 31 148 38 32 78 32 110 0z"/>
<path d="M7213 5409 c21 -12 22 -52 3 -168 -9 -53 -20 -89 -30 -96 -13 -10 -2
-16 63 -33 132 -37 181 -27 181 34 0 25 -8 42 -26 59 -20 18 -23 25 -11 25 23
0 47 28 47 56 0 43 -48 79 -142 108 -91 28 -114 32 -85 15z m146 -57 c75 -55
17 -130 -69 -89 -25 12 -26 14 -17 65 8 52 10 53 35 47 15 -3 38 -14 51 -23z
m-52 -113 c62 -23 94 -84 61 -117 -15 -15 -57 -16 -92 -2 -28 10 -33 35 -20
99 7 34 10 36 51 20z"/>
<path d="M12918 5371 c-36 -9 -70 -20 -74 -24 -5 -4 -1 -5 7 -2 25 10 35 -13
57 -135 l21 -115 -22 -19 c-21 -17 -21 -18 -2 -13 11 3 40 11 65 18 33 10 39
14 23 17 -15 2 -23 13 -27 33 -3 16 -9 43 -12 59 -9 46 23 39 91 -21 51 -44
61 -49 89 -43 17 3 36 11 41 17 7 6 7 8 0 4 -15 -8 -65 17 -110 56 l-40 35 28
27 c40 41 36 89 -10 114 -27 14 -41 13 -125 -8z m90 -17 c23 -16 29 -53 12
-84 -10 -19 -67 -44 -74 -32 -2 4 -7 33 -11 64 -7 54 -6 57 16 61 13 2 26 5
29 6 3 0 16 -6 28 -15z"/>
<path d="M12635 5305 c-27 -7 -40 -14 -28 -14 12 -1 24 -5 27 -9 2 -4 14 -63
27 -131 21 -122 22 -124 3 -139 -18 -14 -18 -14 -1 -8 10 3 36 9 58 12 22 4
42 10 45 15 3 5 -1 6 -9 3 -21 -8 -37 19 -44 75 l-6 51 32 0 c71 0 118 93 71
140 -24 24 -94 25 -175 5z m127 -22 c38 -35 12 -113 -39 -113 -12 0 -23 2 -23
4 0 2 -4 27 -10 56 -5 29 -7 56 -4 61 9 15 56 10 76 -8z"/>
<path d="M7564 5296 c-39 -17 -72 -59 -80 -100 -20 -107 89 -214 188 -185 114
32 136 197 37 272 -34 25 -105 31 -145 13z m123 -21 c44 -31 50 -152 11 -214
-14 -22 -50 -41 -79 -41 -30 0 -77 52 -84 94 -9 46 10 124 37 154 26 26 82 30
115 7z"/>
<path d="M12518 5283 c-25 -4 -28 -10 -54 -121 -15 -64 -30 -121 -34 -125 -4
-5 -38 39 -75 97 l-67 106 -47 0 c-43 0 -45 -1 -21 -13 22 -11 27 -26 47 -132
28 -149 27 -144 1 -155 -21 -8 -21 -9 7 -8 34 0 90 15 63 17 -9 1 -20 6 -24
13 -8 13 -44 211 -39 216 1 2 35 -47 74 -108 39 -60 75 -110 80 -110 4 0 21
56 36 125 16 69 31 125 35 125 3 0 14 -48 24 -107 17 -103 17 -107 0 -120 -22
-16 -14 -16 56 2 30 7 45 14 33 14 -12 1 -24 4 -27 9 -2 4 -14 63 -26 131 -21
120 -22 125 -4 138 19 14 16 14 -38 6z"/>
<path d="M7834 5268 c19 -11 21 -53 6 -148 -17 -110 -21 -121 -43 -130 -16 -6
-3 -9 43 -8 36 0 57 2 48 5 -13 3 -18 14 -18 37 0 54 11 96 26 96 7 0 32 -32
54 -71 30 -50 46 -69 57 -65 8 3 24 6 36 7 l22 0 -23 11 c-12 6 -36 33 -52 60
-32 51 -37 68 -20 68 25 0 60 50 60 83 0 50 -18 60 -122 62 -59 1 -85 -1 -74
-7z m138 -25 c10 -9 18 -25 18 -35 0 -28 -54 -78 -83 -78 -23 0 -24 2 -19 48
2 26 9 55 14 65 11 22 46 22 70 0z"/>
<path d="M12115 5230 c-33 -4 -52 -7 -43 -8 25 -3 34 -25 52 -133 21 -124 20
-155 -1 -169 -17 -11 -17 -11 0 -6 10 3 40 6 65 7 36 0 42 2 26 9 -25 10 -26
16 -50 167 -18 111 -18 113 2 128 10 8 17 14 14 13 -3 -1 -32 -4 -65 -8z"/>
</g>
</svg>
